<svg width="19" height="18" viewBox="0 0 19 18" fill="none" xmlns="http://www.w3.org/2000/svg">
<path d="M8.33337 8.16667V5.66667L12.5 9L8.33337 12.3333V9.83333H0.833374V8.16667H8.33337ZM2.04821 11.5H3.81797C4.80695 13.9432 7.20222 15.6667 10 15.6667C13.682 15.6667 16.6667 12.6819 16.6667 9C16.6667 5.3181 13.682 2.33333 10 2.33333C7.20222 2.33333 4.80695 4.05681 3.81797 6.5H2.04821C3.1101 3.11908 6.26867 0.666668 10 0.666668C14.6024 0.666668 18.3334 4.39763 18.3334 9C18.3334 13.6023 14.6024 17.3333 10 17.3333C6.26867 17.3333 3.1101 14.8809 2.04821 11.5Z" fill="white"/>
</svg>
