<svg width="100" height="64" viewBox="0 0 100 64" fill="none" xmlns="http://www.w3.org/2000/svg">
<g clip-path="url(#clip0_17_474)">
<path d="M8.37199 54.5436V56.7518H5.33883V63.792H3.03316V56.7518H0V54.5436H8.37199Z" fill="#131316"/>
<path d="M8.45586 59.1966C8.45586 56.5455 10.3713 54.3374 13.4181 54.3374C16.465 54.3374 18.3804 56.5455 18.3804 59.1966C18.3804 61.8477 16.465 64.0017 13.4181 64.0017C10.3713 64.0017 8.45586 61.8206 8.45586 59.1966ZM16.0319 59.1678C16.0319 57.773 15.0682 56.5725 13.4181 56.5725C11.768 56.5725 10.8043 57.773 10.8043 59.1678C10.8043 60.5627 11.7543 61.7631 13.4181 61.7631C15.0819 61.7631 16.0319 60.5475 16.0319 59.1678Z" fill="#131316"/>
<path d="M27.3104 57.8017C27.3104 59.7478 25.8144 61.0868 24.0119 61.0868H21.482V63.792H19.1763V54.5419H24.0119C25.8571 54.5419 27.3104 55.9233 27.3104 57.8V57.8017ZM23.8014 58.9328C24.4159 58.9328 24.9619 58.5186 24.9619 57.8152C24.9619 57.166 24.4022 56.7518 23.8014 56.7518H21.482V58.9328H23.8014Z" fill="#131316"/>
<path d="M28.2039 63.7937V54.5436H34.9686V56.7518H30.5096V63.792H28.2039V63.7937Z" fill="#131316"/>
<path d="M34.9823 59.1966C34.9823 56.5455 36.8977 54.3374 39.9445 54.3374C42.9914 54.3374 44.9068 56.5455 44.9068 59.1966C44.9068 61.8477 42.9914 64.0017 39.9445 64.0017C36.8977 64.0017 34.9823 61.8206 34.9823 59.1966ZM42.5583 59.1678C42.5583 57.773 41.5946 56.5725 39.9445 56.5725C38.2945 56.5725 37.3308 57.773 37.3308 59.1678C37.3308 60.5627 38.2808 61.7631 39.9445 61.7631C41.6083 61.7631 42.5583 60.5475 42.5583 59.1678Z" fill="#131316"/>
<path d="M51.9231 54.5436H54.2288V63.7937H51.9231V60.2043H48.0101V63.7937H45.7045V54.5436H48.0101V58.0097H51.9231V54.5436Z" fill="#131316"/>
<path d="M60.1547 57.2911C61.9863 57.2911 63.4532 58.5896 63.4532 60.5357C63.4532 62.4817 62 63.7937 60.1547 63.7937H55.7385V54.5436H58.0442V57.2911H60.1547ZM59.9442 61.5839C60.7127 61.5839 61.1047 61.0598 61.1047 60.5204C61.1047 59.9811 60.7127 59.457 59.9442 59.457H58.0442V61.5822H59.9442V61.5839ZM64.2218 54.5436H66.5274V63.7937H64.2218V54.5436Z" fill="#131316"/>
<path d="M76.8405 59.0157C77.6929 59.2507 78.405 59.9963 78.405 61.1409C78.405 62.715 77.1058 63.792 75.5396 63.792H70.9128V61.5839H75.1065C75.6937 61.5839 76.0018 61.239 76.0018 60.9076C76.0018 60.5762 75.7074 60.2448 75.1065 60.2448H72.0323V58.0638H75.0518C75.5961 58.0638 75.8905 57.7189 75.8905 57.3875C75.8905 57.0561 75.6252 56.7382 75.0518 56.7382H70.9146V54.5436H75.5122C77.0784 54.5436 78.2937 55.4549 78.2937 56.9327C78.2937 57.844 77.7477 58.6589 76.8405 58.9616V59.0174V59.0157Z" fill="#131316"/>
<path d="M86.0102 63.7937L85.3529 62.081H81.7189L81.0753 63.7937H78.5591L82.2906 54.5436H84.877L88.6222 63.7937H86.0085H86.0102ZM82.4601 60.1485H84.6117L83.5213 57.3317L82.4584 60.1485H82.4601Z" fill="#131316"/>
<path d="M100 63.7937H97.6943V57.9133L95.2757 63.7937H93.9474L91.5287 57.9133V63.7937H89.2231V54.5436H92.424L94.6184 60.0386L96.8265 54.5436H100V63.7937Z" fill="#131316"/>
<path d="M7.95433 49.9194H92.0474C92.1758 49.0504 92.2785 48.1644 92.3521 47.2633C92.4462 46.1271 92.4941 44.9723 92.4941 43.8006C92.4941 32.2105 87.7373 21.716 80.0483 14.1212C72.3593 6.52461 61.7346 1.8277 50.0009 1.8277C38.2671 1.8277 27.6425 6.52461 19.9534 14.1212C12.2644 21.716 7.50757 32.2105 7.50757 43.8006C7.50757 44.9723 7.5555 46.1271 7.64965 47.2633C7.72496 48.1627 7.82595 49.0487 7.95433 49.9194ZM0 49.9194H6.09028C5.97046 49.0842 5.87631 48.2456 5.80613 47.407C5.70685 46.2116 5.65721 45.0078 5.65721 43.8006C5.65721 31.705 10.6212 20.7557 18.6457 12.8294C26.6702 4.90318 37.7553 0 49.9991 0C62.243 0 73.3298 4.90318 81.3543 12.8294C89.3788 20.7557 94.3428 31.705 94.3428 43.8006C94.3428 45.0078 94.2914 46.2116 94.1939 47.407C94.1237 48.2456 94.0295 49.0842 93.9097 49.9194H100V51.7471H0V49.9194Z" fill="#131316"/>
<mask id="mask0_17_474" style="mask-type:luminance" maskUnits="userSpaceOnUse" x="7" y="1" width="86" height="49">
<path d="M7.64793 47.2633C7.72325 48.1627 7.82424 49.0487 7.95262 49.9194H92.0457C92.174 49.0487 92.2767 48.1644 92.3503 47.2633C92.4445 46.1271 92.4924 44.9723 92.4924 43.8006C92.4924 32.2105 87.7356 21.716 80.0466 14.1195C72.3575 6.52461 61.7329 1.82601 49.9991 1.82601C38.2653 1.82601 27.6407 6.52292 19.9517 14.1195C12.2627 21.716 7.50586 32.2088 7.50586 43.8006C7.50586 44.9723 7.55379 46.1271 7.64793 47.2633Z" fill="white"/>
</mask>
<g mask="url(#mask0_17_474)">
<path d="M7.5068 1.41794L7.26924 49.9183L92.491 50.3338L92.7285 1.83347L7.5068 1.41794Z" fill="white"/>
</g>
<path fill-rule="evenodd" clip-rule="evenodd" d="M46.1512 18.5459L45.7335 3.14311L48.1573 16.1027L46.1512 18.5459ZM26.3587 36.9903L11.1706 30.7886L27.1615 34.5911L12.7026 26.8474L28.2039 32.2798L14.6437 23.0855L29.4843 30.0886L16.9699 19.5451L30.9889 28.0428L19.659 16.265L32.7023 26.1627L22.6819 13.2792L34.6057 24.4702L26.0026 10.623L36.6769 22.9841L29.587 8.32526L38.8953 21.7194L33.3955 6.40795L41.2352 20.6914L37.3855 4.89642L43.6709 19.9103L41.5142 3.80419L45.9869 18.7487L37.3992 29.2094L32.9419 27.0081L26.3638 36.9903H26.3587ZM24.9054 39.1967L10.0649 34.865L26.357 36.9936L24.9054 39.1967ZM23.3358 41.5773L9.39559 39.0344L24.7428 39.4402L23.3341 41.5773H23.3358ZM21.6018 44.2081L9.17136 43.2494L22.9318 42.1893L21.6001 44.2081H21.6018ZM19.6351 47.1939L13.8683 47.3461L13.6201 47.2649L13.5568 47.3546L9.3973 47.4645L20.8315 45.3781L19.6351 47.1922V47.1939ZM83.648 46.1964L90.6027 47.4661L84.9164 47.3157L83.648 46.1981V46.1964ZM79.6802 42.3905L90.8269 43.2494L81.1506 43.995L80.1955 43.153L79.6802 42.3888V42.3905ZM77.6467 39.3776L90.6027 39.0344L78.8603 41.1766L77.6467 39.3776ZM75.8443 36.7062L89.9351 34.865L77.1264 38.6049L75.8443 36.7062ZM74.1976 34.2665L88.8294 30.7869L75.5191 36.2227L74.1976 34.2648V34.2665ZM72.6537 31.9789L87.2974 26.8474L73.9974 33.9706L72.6537 31.9806V31.9789ZM51.3565 18.7065L54.2664 3.14311L53.8248 19.3845L58.4875 3.80419L56.3308 19.9103L62.6145 4.89642L58.7648 20.6914L66.6045 6.40795L61.1047 21.7194L70.413 8.32526L63.3231 22.9841L73.9974 10.623L65.3943 24.4702L77.3181 13.2792L67.2977 26.1627L80.341 16.265L69.0111 28.0428L83.0301 19.5451L70.5157 30.0886L85.3563 23.0855L72.5236 31.7861L72.171 31.2637L67.8609 33.6121L62.5118 25.6859L56.2709 24.0712L51.3582 18.7065H51.3565ZM49.9991 2.92331L51.2367 18.5763L48.9584 16.0892L49.9991 2.92331Z" fill="#FF4405"/>
<path fill-rule="evenodd" clip-rule="evenodd" d="M48.5476 19.8883L40.3742 29.7961L43.1985 31.1183L39.1862 35.6309L47.9554 28.4012L45.8756 27.8873L52.1918 23.777L48.5493 19.8883H48.5476ZM51.7434 31.5545C51.7434 31.5545 54.566 27.2245 55.0128 27.1518C55.4578 27.0791 60.5861 27.1518 60.5861 27.1518C60.5861 27.1518 72.5493 44.252 71.6575 43.8851C70.7657 43.5182 63.1879 41.3896 63.1879 40.8029C63.1879 40.2162 63.2615 34.8582 63.2615 34.8582L50.0351 44.0322L59.4718 33.8302L58.431 29.72L51.7434 31.5545ZM70.9146 35.6664L72.6229 34.5657L79.3105 44.8404L70.9146 35.6664ZM24.3988 44.6933C24.3988 44.3264 33.6112 30.0142 33.6112 30.0142L38.8131 32.0702L33.3151 39.337L34.1316 33.8319L24.3988 44.6933Z" fill="#FF4405"/>
<path fill-rule="evenodd" clip-rule="evenodd" d="M33.1388 49.4984L33.2569 50.8324H10.2155C10.1727 50.6109 10.1333 50.3878 10.094 50.1646C10.765 49.911 11.4736 49.5762 11.7218 49.2482L10.5116 49.3547L10.8848 48.9658C10.3713 49.1755 10.2874 49.3006 9.94676 49.2837C9.91424 49.0707 9.88172 48.8576 9.85091 48.6429C10.082 48.4417 10.3268 48.2473 10.5116 48.0833C10.9139 47.7215 11.2836 47.4137 11.5969 47.0249L10.9087 47.505L10.8762 47.3698L10.7581 46.986L11.8108 45.5387C11.0868 45.4677 11.4685 45.6824 10.8266 45.6621L12.8122 42.8352C12.6342 42.8774 12.3637 43.0516 12.1429 42.9349C12.0607 42.6069 12.3021 42.3854 12.5195 42.0642C12.6992 41.7971 12.932 41.4707 13.0689 41.1935C13.4438 41.5299 13.8084 42.3415 14.0942 42.8115C14.0515 42.8419 14.0275 42.825 13.9522 42.8233C13.2213 42.8098 13.7468 42.7625 13.567 42.9349C13.9727 43.4083 14.3493 44.1692 14.7687 44.7001L14.2312 44.8303C13.8786 44.8708 14.1405 44.8878 13.1973 44.2909C13.4421 44.8438 14.3989 45.067 15.4054 46.3739C15.8333 45.9462 16.4188 45.4998 16.8124 45.1481C17.3944 44.6274 17.9268 44.1844 18.377 43.6231L17.3876 44.3146L17.3397 44.1185L17.1685 43.5656L18.6868 41.4775C17.6443 41.3761 18.1938 41.6855 17.2678 41.6567L20.1297 37.5803C19.873 37.6395 19.4844 37.8914 19.1643 37.724C19.0462 37.2523 19.3971 36.9311 19.7087 36.4678C19.9688 36.0806 20.3043 35.6123 20.5029 35.2116C21.0421 35.6968 21.5676 36.8668 21.9801 37.5448C21.9185 37.5905 21.8842 37.5651 21.7764 37.5617C20.7203 37.5431 21.4803 37.4755 21.2201 37.724C21.8038 38.4071 22.3481 39.5027 22.9524 40.2686L22.1752 40.458C21.6686 40.5155 22.0486 40.5391 20.6861 39.6785C21.0883 40.5916 22.836 40.8807 24.4997 43.5977L24.065 43.4168L21.6104 43.0736C22.0931 44.6257 23.8818 45.8109 24.926 46.8693C23.976 47.3326 24.5751 46.3486 23.0328 46.6901C23.3563 47.336 23.0071 46.9843 23.4162 47.4966L24.7017 48.5009L24.6607 48.369L25.5251 47.1804C24.9311 47.1229 25.2443 47.2988 24.7171 47.2819L26.3467 44.9605C26.2012 44.9943 25.9804 45.138 25.7972 45.0433C25.7305 44.7728 25.929 44.5919 26.1053 44.3264C26.2543 44.1066 26.446 43.8395 26.5589 43.6129C26.8653 43.8885 27.1649 44.5547 27.4011 44.9402C27.3652 44.9655 27.3463 44.952 27.2847 44.9503C26.6822 44.9402 27.1152 44.9013 26.968 45.0433C27.3001 45.4305 27.6099 46.0561 27.954 46.4906L27.5107 46.5988C27.2231 46.6326 27.4388 46.6444 26.6634 46.1541C26.8773 46.6394 27.7571 46.8169 28.6421 48.0934L28.5753 47.8719L29.5065 46.592C28.8663 46.5278 29.2035 46.7188 28.6352 46.7019L30.3915 44.1979C30.234 44.2351 29.9961 44.3907 29.7992 44.2875C29.7273 43.9967 29.9413 43.8006 30.133 43.5149C30.2922 43.2782 30.4993 42.9907 30.6208 42.7456C30.9512 43.0431 31.2747 43.7617 31.528 44.1776C31.4904 44.2047 31.4681 44.1895 31.4031 44.1878C30.7543 44.1759 31.2199 44.1337 31.0607 44.2875C31.4202 44.7068 31.7523 45.3798 32.1254 45.8498L31.6479 45.9648C31.3363 46.0003 31.5691 46.0155 30.7338 45.4863C30.9734 46.0307 31.9902 46.215 32.983 47.7468C33.0121 47.7942 33.0429 47.8432 33.0737 47.8922L32.9916 47.8584L32.8067 47.7823L31.3004 47.571C31.5589 48.4028 32.4318 49.0639 33.0754 49.6523L33.06 49.6066L33.1388 49.4984Z" fill="#131316"/>
<path fill-rule="evenodd" clip-rule="evenodd" d="M90.2655 48.8424L89.3685 48.7156C89.4935 49.118 89.7862 49.4697 90.1166 49.7926C90.0584 50.1409 89.995 50.4875 89.93 50.8324H66.3255L66.7294 47.0164C67.1984 46.5971 67.6264 46.242 67.9893 45.7889L67.1916 46.3452L67.1556 46.1896L67.017 45.7433L68.2392 44.0627C67.3987 43.9815 67.842 44.23 67.0957 44.2064L69.3997 40.9263C69.1943 40.9737 68.8811 41.1782 68.6243 41.043C68.5284 40.6626 68.8109 40.4039 69.0608 40.0302C69.2713 39.7208 69.5401 39.3421 69.6993 39.0208C70.134 39.4114 70.5568 40.3532 70.8889 40.8993C70.8393 40.9348 70.8119 40.9145 70.7246 40.9111C69.8756 40.8976 70.4866 40.8418 70.2778 41.043C70.7485 41.5908 71.185 42.4734 71.6711 43.0905L71.0464 43.2426C70.639 43.29 70.9437 43.3069 69.8482 42.6154C70.1717 43.3509 71.5787 43.5842 72.9156 45.7703L72.5664 45.6249L70.5911 45.3459C70.7811 45.9563 71.2193 46.4957 71.7191 46.986C72.0272 46.7155 72.361 46.4517 72.6092 46.2302C73.1244 45.7686 73.5985 45.3764 73.9974 44.8776L73.1175 45.4897L73.0782 45.3172L72.9258 44.8269L74.2712 42.9755C73.3452 42.8842 73.8348 43.1598 73.0131 43.1344L75.5516 39.5179C75.3239 39.572 74.9799 39.7952 74.6957 39.6464C74.5913 39.2271 74.9012 38.9431 75.1785 38.5305C75.4095 38.189 75.7074 37.7731 75.882 37.418C76.3612 37.8492 76.8268 38.8873 77.1931 39.4875C77.1384 39.5264 77.1075 39.5044 77.0117 39.501C76.0754 39.4858 76.7498 39.4266 76.5187 39.6464C77.0357 40.2517 77.5184 41.2239 78.0541 41.9036L77.3677 42.071C76.9175 42.1234 77.253 42.142 76.0463 41.3794C76.3766 42.1335 77.7426 42.4091 79.1188 44.3822L79.7556 43.4743C79.5861 43.5149 79.3328 43.6806 79.1222 43.5707C79.0452 43.2596 79.2746 43.0499 79.4783 42.7456C79.6494 42.492 79.8703 42.1842 79.9986 41.9222C80.353 42.24 80.6987 43.0076 80.9692 43.4523C80.9298 43.4827 80.9076 43.4658 80.8357 43.4624C80.1424 43.4506 80.6422 43.4067 80.4711 43.5707C80.8545 44.017 81.2105 44.7373 81.6076 45.2394L81.0976 45.3628C80.7655 45.4017 81.0137 45.417 80.1202 44.8522C80.3769 45.4339 81.469 45.63 82.5303 47.2785L83.3279 46.1846C82.6535 46.1186 83.0095 46.3181 82.4121 46.2995L84.2574 43.6704C84.0913 43.7093 83.8414 43.8733 83.6343 43.7651C83.559 43.4608 83.7849 43.2528 83.9852 42.9535C84.153 42.705 84.3703 42.4023 84.497 42.1454C84.8445 42.4581 85.1834 43.2122 85.4504 43.6484C85.4111 43.6772 85.3888 43.662 85.3186 43.6586C84.6374 43.6467 85.1286 43.6045 84.9609 43.7651C85.3358 44.2047 85.6867 44.9114 86.0769 45.4051L85.5771 45.5269C85.2502 45.564 85.4932 45.5776 84.6168 45.0247C84.8753 45.6131 86.0016 45.7991 87.0749 47.5507L86.7941 47.434L85.2108 47.2108C85.5001 48.1424 86.5185 48.8678 87.1998 49.5153C87.383 49.3513 87.5524 49.189 87.7031 48.9997L87.1913 49.3564L87.169 49.255L87.08 48.9709L87.8622 47.8939C87.3248 47.8415 87.6072 48.0021 87.1296 47.9869L88.6051 45.8853C88.4733 45.9157 88.2731 46.0459 88.1087 45.9597C88.0471 45.7162 88.2285 45.5505 88.3877 45.3121C88.523 45.1143 88.6958 44.8708 88.7968 44.6646C89.0758 44.9148 89.3463 45.5184 89.5586 45.8684C89.5277 45.8904 89.5106 45.8785 89.4541 45.8751C88.9098 45.8667 89.3018 45.8312 89.1683 45.9597C89.4695 46.3114 89.7486 46.8761 90.0601 47.2717L89.6613 47.3698C89.3994 47.3985 89.5945 47.4104 88.8927 46.9674C89.0587 47.3444 89.6681 47.5152 90.3442 48.2845C90.3185 48.4704 90.2929 48.6564 90.2655 48.8424Z" fill="#131316"/>
<path fill-rule="evenodd" clip-rule="evenodd" d="M46.8256 48.741C46.9352 48.905 46.9198 49.5525 46.877 49.7487C46.7178 49.676 46.752 49.4663 46.7537 49.2668C46.7572 49.0774 46.764 48.9134 46.8239 48.7393L46.8256 48.741ZM41.2044 49.7453L41.1838 49.8552C41.2317 49.8941 41.2968 49.9397 41.3396 49.9668C41.3567 50.1189 41.2865 50.1967 41.3002 50.3455C41.5364 50.4993 41.9746 50.4368 42.2571 50.3928C42.2622 50.2593 42.0106 50.0733 41.9027 50.009C41.8086 49.9532 41.7453 49.9279 41.699 49.8264C41.6528 49.7284 41.6374 49.6033 41.6049 49.5356C41.5501 48.4603 41.3567 48.8796 41.7983 47.691C41.9027 47.4103 42.0174 47.1703 42.1732 46.9454C42.3563 46.6816 42.3837 46.6867 42.5771 46.521C42.6353 46.4703 42.6781 46.4229 42.7346 46.3891C42.7261 47.1077 42.4556 47.6149 42.4436 47.8043C42.4317 47.9937 42.6217 48.0833 42.7723 48.3267C42.899 48.5296 42.988 48.6716 43.0941 48.8847C43.2019 48.9811 43.3063 49.2854 43.3662 49.419C43.4244 49.5491 43.4244 49.5847 43.4262 49.7419C43.4296 49.9752 43.4262 49.8974 43.5699 50.0057C43.5922 50.3421 43.2601 50.4723 44.2854 50.4216L44.4857 50.3878C44.4446 50.1155 44.0475 50.0564 43.8746 49.7368C43.7343 49.4781 43.5973 49.1467 43.4313 48.8948C43.2379 48.227 42.9383 48.1171 43.2635 46.964C43.3491 46.6563 43.4809 46.3993 43.5699 46.0916C43.6744 45.7247 43.5528 45.3578 43.51 45.001C43.7805 45.165 44.0595 45.5455 44.7065 45.8008C45.2936 46.0324 45.8328 46.0222 46.1837 45.6114C46.1615 45.865 45.9355 45.9428 45.8568 46.1271C45.9509 46.0933 46.0006 46.0442 46.0981 45.9986C46.0126 46.2116 45.7712 46.237 45.7592 46.592C45.8123 46.4534 45.9544 46.308 46.1016 46.2809C45.8927 46.4568 45.7353 46.7324 45.8106 47.128C45.8517 47.0299 45.8602 46.9488 45.9116 46.8338C45.9047 47.1618 45.8842 47.2954 46.0605 47.527C46.0468 47.2785 46.0468 47.2751 46.1563 47.0942C46.1426 47.3427 46.1033 47.5067 46.1341 47.7756L46.2145 47.6082C46.218 47.8652 46.182 47.9396 46.2693 48.1729C46.2881 47.9429 46.2916 47.9074 46.3977 47.7417C46.3908 47.9193 46.3669 48.0156 46.4319 48.1796C46.5055 48.3656 46.473 48.4028 46.4918 48.6209C46.5192 48.9422 46.509 49.2905 46.4696 49.5897C46.4525 49.7098 46.4165 49.796 46.3943 49.9042C46.3481 50.1257 46.4388 50.0564 46.5244 50.1494C46.6339 50.2677 46.55 50.3015 46.509 50.4622C46.4627 50.6397 46.5535 50.6042 46.6151 50.7394C46.8051 50.7411 47.0036 50.7682 47.1748 50.7631C47.3614 50.7563 47.548 50.7327 47.738 50.7377L47.8338 50.6617C47.7654 50.5146 47.625 50.4097 47.5 50.3303C47.2861 50.195 47.3152 50.1713 47.2399 49.8907C47.1543 49.5035 47.1286 49.0064 47.2672 48.6226C47.3511 48.3927 47.3083 48.2439 47.435 48.0833C47.5411 47.948 47.649 47.8466 47.6969 47.6318L47.7688 47.7772C47.8407 47.5439 48.0546 47.3579 48.1488 47.0519C48.2344 46.7746 48.195 46.3925 48.3336 46.1744C48.3422 46.4635 48.3696 46.6732 48.5014 46.8964C48.5818 47.0316 48.7753 47.314 48.8831 47.3698C48.8026 47.2649 48.7838 47.057 48.8078 46.8862C48.8352 46.6901 48.8985 46.6309 48.9481 46.4872C48.9396 46.7865 48.8506 46.9369 48.9516 47.2802C49.0149 47.4983 49.169 47.7248 49.3281 47.7925C49.2477 47.6538 49.1912 47.6149 49.1707 47.4137C49.1484 47.2108 49.2083 47.1094 49.2117 46.9877C49.2648 47.3596 49.3196 47.6251 49.5592 47.7908C49.4377 47.2869 49.4086 47.407 49.5455 46.8642C49.5507 47.3174 49.549 47.7637 49.9153 47.9193C49.7783 47.6268 49.7047 47.3072 49.9153 46.9961C49.9067 47.4391 49.9495 47.7857 50.2662 47.9429C50.1121 47.6031 50.0368 47.4103 50.2662 47.0333C50.2542 47.3884 50.2336 47.6487 50.5212 47.8364C50.3603 47.4103 50.4168 47.2362 50.6599 46.8254C50.6804 47.0265 50.6342 47.0705 50.6102 47.2294C50.7523 47.0739 50.8259 46.8845 50.9183 46.6597C50.9748 46.8693 50.932 47.0807 50.8721 47.2582C50.9491 47.1855 51.0279 47.0654 51.0809 46.9454C51.11 46.8795 51.1254 46.8186 51.146 46.7476C51.1494 46.7324 51.1699 46.6664 51.1734 46.6546C51.2145 46.5633 51.1854 46.6157 51.2281 46.5734C51.2521 46.7932 51.2213 46.8068 51.2008 46.9894C51.5294 46.6461 51.5431 46.2133 51.7006 45.9969L51.7126 46.3198C51.9659 46.0205 52.007 45.7466 52.0463 45.2817C52.0823 45.564 52.1234 45.5184 52.0926 45.8819C52.1884 45.7652 52.2774 45.5201 52.3134 45.3459C52.3818 45.0213 52.3048 44.979 52.2774 44.7271C52.3219 44.7914 52.3853 44.81 52.4486 44.9114C52.5154 45.0179 52.5102 45.0974 52.5599 45.1904C52.654 44.7542 52.4691 44.6426 52.3048 44.4177C52.4965 44.4769 52.5427 44.5699 52.6506 44.6612C52.6163 44.4042 52.4092 44.1709 52.3647 43.9189C52.4828 43.9866 52.4897 44.0474 52.6266 44.1421C52.5924 43.8631 52.4589 43.6095 52.3425 43.3914C52.4452 43.4405 52.4161 43.4472 52.4982 43.5047C52.464 43.3069 52.2963 43.1733 52.1645 43.0719C52.1884 42.9789 52.1045 43.1311 52.1918 43.0516C52.286 42.9671 52.2141 43.0634 52.2261 43.011L52.0395 42.8724C52.0429 42.7726 52.0224 42.8842 52.0669 42.82C52.1371 42.7219 52.084 42.8774 52.0857 42.8031C51.6646 42.4564 51.7194 42.3364 52.298 42.0371C52.6283 41.8664 52.6899 42.0557 53.0083 42.0354C53.0118 42.0304 53.0152 42.0202 53.0169 42.0169L53.0135 41.8968L53.1692 41.8579C53.1316 41.6584 53.0631 41.5418 52.9741 41.3913C52.7961 41.0937 52.3579 41.1072 52.0241 41.0937C51.7297 41.0819 51.781 40.9804 51.5705 40.9196C51.7126 40.7792 51.7793 40.7792 51.6595 40.5138C51.6253 40.5848 51.6578 40.5949 51.6527 40.6998C51.6355 40.507 51.437 40.3853 51.2333 40.3718C51.3257 40.4157 51.3548 40.436 51.4199 40.4986C50.9645 40.392 51.0296 40.5121 50.6547 40.5104C50.7061 40.5763 50.6941 40.5425 50.7198 40.6186C50.4493 40.7082 50.4031 40.9398 50.0727 40.8367C50.1275 40.928 50.2063 40.9618 50.3021 41.0041C50.3072 41.0075 50.3192 41.0125 50.3244 41.0142L50.3672 41.0362C50.2217 41.1174 50.1703 41.114 50.0385 41.043C50.0813 41.1732 50.0967 41.0852 50.1652 41.2121C50.107 41.3084 50.1754 41.2459 50.0659 41.3034L49.9375 41.3591C50.0248 41.4031 50.0385 41.3879 50.1498 41.393C50.071 41.4521 49.7954 41.6111 49.7612 41.6601L50.059 41.6314C49.8964 41.7463 49.7441 41.841 49.7287 42.1251L49.7578 42.0896C49.8331 41.9999 49.9084 41.9036 50.0265 41.8731C49.9101 41.9239 49.7235 42.1893 49.7458 42.3837C49.8228 42.1944 49.8331 42.2722 49.9016 42.169C49.869 42.3094 49.7509 42.4142 49.7509 42.6424C49.7783 42.5562 49.828 42.4903 49.9101 42.4497C49.8725 42.6999 49.8331 42.7456 49.8964 43.0279L49.9752 42.891L49.9358 43.3678L50.1104 43.1311L50.071 43.5909L50.1463 43.4929C50.1463 43.4929 50.1583 43.4777 50.1617 43.4743L50.1943 43.4354C50.1857 43.5622 50.1686 43.6332 50.1087 43.7262C50.0847 43.7617 50.059 43.7955 50.0436 43.826C49.9649 43.9849 50.0779 43.733 50.0265 43.8699C49.9649 44.039 49.3949 44.0035 49.0252 43.5622C48.8266 43.3255 48.753 42.9434 48.575 42.656C48.2172 42.076 47.738 41.9374 47.5668 41.2357C47.5274 41.0768 47.5497 41.1461 47.5993 41.1258C47.5856 41.0159 47.5463 40.8942 47.5582 40.8147C47.5651 40.7725 47.6096 40.7488 47.524 40.578C47.4076 40.3481 47.4709 40.5002 47.4538 40.3684C47.4299 40.1807 47.0481 40.0133 46.9078 39.9964C46.6699 39.9677 46.3823 40.1249 46.283 40.3024C46.1426 40.5527 46.3155 41.1833 46.1786 41.6094C46.0314 42.0642 45.6137 42.1589 45.2697 41.8326C44.585 41.1799 45.078 40.5425 44.7613 40.1892C44.5285 39.9305 44.2495 39.9744 43.9551 40.0911C43.8267 40.1418 43.6624 40.3768 43.6213 40.5019C43.5802 40.6254 43.5289 40.6372 43.4963 40.7353C43.3851 41.07 43.5631 40.6473 43.5135 40.95C43.4672 41.234 43.5785 40.9246 43.5135 41.1224C43.4535 41.305 43.3543 41.469 43.3132 41.655C43.3594 41.5925 43.4073 41.5688 43.4399 41.5232C43.3902 41.6635 43.3132 41.8004 43.3149 41.983C43.3543 41.8951 43.3697 41.8072 43.4467 41.7565C43.2721 42.9552 42.3495 43.0279 41.6853 43.7566C41.3071 44.1709 41.4628 44.952 41.242 45.2005C41.0948 45.3679 40.8569 45.4203 40.8038 45.7145C40.7319 46.1085 41.0571 46.1727 40.7216 46.4415C41.0948 46.4365 41.0845 46.2048 41.2317 45.9817C41.4628 45.6317 41.5347 45.8971 41.4902 45.2699C41.4731 45.0298 41.533 44.6172 41.5946 44.4008C41.6836 44.0863 41.7795 43.9781 42.002 43.8479C41.8839 44.1472 41.8223 44.2385 41.8411 44.6223C41.8839 45.4998 41.9695 46.1169 41.5056 46.8964C41.3687 47.1263 41.2232 47.2362 41.0965 47.4036C40.9647 47.5794 41.1119 47.9243 41.1496 48.134C41.343 49.2313 41.1924 49.5593 41.2078 49.7436L41.2044 49.7453Z" fill="#131316"/>
<path fill-rule="evenodd" clip-rule="evenodd" d="M60.2472 49.7571C60.2557 49.7892 60.2626 49.8231 60.2643 49.8569C60.2728 50.0006 60.2283 50.031 60.3345 50.1443C60.3978 50.2119 60.4594 50.2424 60.5433 50.2982L60.735 50.4774L60.7555 50.6194C60.6854 50.6279 60.1342 50.6194 59.9767 50.616C59.874 50.6245 59.1602 50.6109 59.1602 50.6109C59.0147 50.3083 59.1739 50.4013 59.1739 50.1071C59.1739 49.8873 59.0336 49.9752 59.0336 49.752C59.0284 49.7182 59.0336 49.6726 59.0609 49.6049C59.1773 49.3057 59.3776 48.8898 59.2972 48.5415C59.2561 48.3622 59.2544 48.1712 59.381 48.0664L59.2167 48.0883L59.2681 47.8483C59.2681 47.7722 59.2783 47.8144 59.2458 47.7654L59.1842 47.9463C59.1037 47.7231 59.2064 47.5355 59.2869 47.3867C59.1431 47.4712 59.1722 47.5 59.0883 47.6301C58.9805 47.3934 59.2236 47.1939 59.2989 47.1009C59.1773 47.1466 59.1636 47.172 58.9942 47.1804L59.0267 47.1466C59.0267 47.1466 59.0387 47.1348 59.0421 47.1297C59.0455 47.1263 59.0524 47.1195 59.0575 47.1145C59.1243 47.0485 59.2099 46.9826 59.2458 46.8997L58.9617 46.9403C59.0678 46.8135 59.2355 46.8558 59.3673 46.57C58.7785 46.6411 58.0031 46.4923 57.5204 46.2877C56.6474 45.9174 56.4198 45.5894 56.151 45.4491C56.0826 45.586 56.0021 46.2454 55.949 46.472C55.8635 46.8321 55.7539 47.0925 55.6478 47.4188C55.249 48.6497 55.5673 49.0436 56.3051 50.0851C56.3821 50.1933 56.4078 50.2255 56.4523 50.2491H56.454H56.4557L56.4591 50.2508H56.4609L56.4626 50.2525H56.4643H56.466H56.4677L56.4694 50.2542H56.4711H56.4728H56.4745L56.4763 50.2559H56.478L56.4797 50.2576H56.4814V50.2593H56.4848H56.4882L56.4917 50.261H56.4934H56.4968L56.5002 50.2626H56.5036H56.5071H56.5105L56.5139 50.2643H56.5156H56.5191V50.266H56.5208L56.5242 50.2677H56.5259H56.531V50.2711H56.5345L56.5362 50.2745L56.5396 50.2762H56.543L56.5499 50.2796L56.5584 50.2829L56.5653 50.2863H56.5687L56.5738 50.2897L56.5807 50.2931H56.5824L56.5892 50.2982H56.5909L56.5927 50.2998C56.6012 50.3049 56.6115 50.3083 56.6218 50.3134L56.632 50.3184C56.7193 50.3607 56.822 50.4469 56.9093 50.5061C56.9179 50.5416 56.9162 50.5754 56.8871 50.5957C56.8032 50.6566 56.721 50.6718 56.5447 50.6735C56.3667 50.6752 56.0312 50.6735 56.0312 50.6735L55.9901 50.6059C56.009 50.594 56.0192 50.5788 56.0261 50.5551C56.0261 50.5551 56.0278 50.5484 56.0295 50.5433V50.5399V50.5365V50.5332V50.5298V50.5281V50.5264V50.5247V50.5213V50.5196V50.518V50.5163V50.5129V50.5095V50.5078V50.5061V50.5027V50.4994V50.4977V50.496V50.4926V50.4892V50.4858V50.4824V50.4791V50.474V50.4706V50.4672V50.4638V50.4588V50.4554V50.452V50.4486V50.4452V50.4436V50.4402V50.4368V50.4334V50.43V50.4283V50.4233V50.4199V50.4165V50.4131V50.4081C56.0244 50.403 56.0209 50.3996 56.0158 50.3962C56.0158 50.3962 56.0107 50.3928 56.009 50.3911C56.0072 50.3895 56.0055 50.3878 56.0021 50.3861C56.0004 50.3861 55.9987 50.3827 55.997 50.381C55.997 50.381 55.9936 50.3776 55.9918 50.3759L55.9884 50.3725H55.985V50.3692H55.9833L55.9799 50.3658C55.8686 50.2948 55.8036 50.3269 55.7488 50.1274C55.6923 49.916 55.6786 49.8721 55.5742 49.6895C55.415 49.4156 55.2712 49.1789 55.0778 48.9642C54.9648 48.839 54.9083 48.7816 54.7731 48.6581C54.3811 48.3014 54.8091 48.4569 54.9272 47.2751C54.7423 47.3799 54.4838 47.7553 54.3674 47.9852C54.0627 48.5888 54.0473 49.4021 54.287 50.0479C54.3743 50.2846 54.4222 50.2491 54.6088 50.3658C54.7971 50.4824 54.8056 50.5551 54.9374 50.6769C54.9306 50.7479 54.9374 50.7344 54.9083 50.7445H53.9172H53.9446C53.9977 50.381 54.0593 50.3709 53.8094 50.1984C53.7923 49.9397 53.8351 49.7148 53.8077 49.419C53.7033 48.3115 53.2959 48.041 53.6228 47.7739C54.0234 47.4475 54.2236 47.0012 54.263 46.3959C54.2938 45.9225 54.2476 45.3206 54.2082 44.8438C54.0867 44.996 53.9618 45.7585 53.8727 46.0324C53.6742 46.6411 53.907 46.7019 53.2018 46.871C53.2634 46.7543 53.3883 46.7357 53.3661 46.614C53.3438 46.4923 53.2463 46.4686 53.2617 46.2674C53.2856 45.9495 53.5218 45.9529 53.7033 45.8109C53.8642 45.6858 53.8676 45.3645 53.9138 45.1346C53.9618 44.8962 54.0302 44.673 54.1261 44.4617C54.2271 44.2402 54.3589 44.0644 54.5027 43.9494C55.0264 43.5284 55.5331 43.2494 55.7026 42.4683C55.6495 42.5106 55.6358 42.5173 55.593 42.5833L55.718 42.1065C55.6837 42.0929 55.7265 42.1268 55.6889 42.0946C55.7368 41.9932 55.7368 41.9103 55.8001 41.8021C55.8549 41.7041 55.9371 41.6635 55.9782 41.5806C55.8309 41.606 55.7916 41.7328 55.7026 41.819C55.7197 41.4691 55.9165 41.5316 56.1014 41.4014L55.8155 41.4234C55.8532 41.2949 55.997 41.3067 56.0791 41.234C56.0381 41.2239 56.0141 41.2222 55.9662 41.2053L55.8857 41.1647C55.8823 41.1546 55.872 41.1563 55.8669 41.1512C56.0552 41.092 55.9696 41.1106 56.1716 41.1174C56.1442 41.0599 55.9953 41.0159 56.0928 40.8773C56.1579 40.7843 56.2709 40.8469 56.3496 40.8773C56.3222 40.6473 56.3273 40.6507 56.4985 40.5476L56.5276 40.7657C56.5978 40.5104 56.62 40.3954 56.9059 40.3346C56.846 40.3971 56.7741 40.4377 56.7844 40.5611C56.7895 40.3244 57.5067 40.1689 57.7857 40.4022C57.7857 40.4428 57.7857 40.4208 57.7138 40.4597C57.9141 40.4969 57.9928 40.6304 57.9911 40.8553L57.8918 40.6947C57.9381 40.9365 57.9364 40.9635 57.7943 41.0903C57.7173 41.0565 57.7566 41.0633 57.6882 41.0176C57.5683 40.9382 57.6402 40.9855 57.5564 40.9821L57.4913 40.9889C57.1644 41.1292 57.4999 42.4497 58.0818 42.6492C59.0695 42.9857 59.4872 41.1224 59.2099 40.9787C59.15 40.9483 59.1157 40.9906 59.0592 41.0024C58.9411 41.0261 58.9617 41.0633 58.8641 41.1072C58.7083 40.9483 58.7854 40.8384 58.847 40.6507C58.7717 40.6879 58.7477 40.7319 58.71 40.8181C58.7015 40.5899 58.8727 40.4005 59.0712 40.3396C59.3502 40.2551 59.5436 40.3548 59.761 40.4546C59.72 40.3667 59.7114 40.3988 59.6429 40.321C59.8158 40.3515 59.8552 40.3802 59.8963 40.5358L59.9271 40.3836C60.088 40.5036 60.0161 40.436 60.0948 40.6321C60.242 40.5713 60.3773 40.6355 60.4355 40.7437C60.3396 40.7877 60.331 40.7437 60.266 40.8452C60.4919 40.7674 60.6409 40.8925 60.7127 41.043C60.6409 41.0041 60.5809 40.9601 60.456 40.9601C60.6905 41.2425 60.7812 41.2645 60.759 41.7294L60.6083 41.4048V41.5654L60.5245 41.4099C60.5484 41.7971 60.9986 42.4886 61.0003 42.5731C60.9952 42.5139 60.8497 42.3651 60.7692 42.3127C60.8531 42.5359 61.0174 42.7675 61.1458 42.9366C61.2742 43.1074 61.4864 43.3187 61.5686 43.4929C61.4334 43.3204 61.2382 43.2545 61.0876 43.104C61.1783 43.3255 61.4539 43.4912 61.572 43.7228L61.4728 43.6569C61.5669 43.99 62.4022 44.5073 62.7052 43.9071C62.5751 43.9578 62.4844 44.0119 62.3149 44.0153C62.5494 43.9545 62.6932 43.7279 62.7719 43.5132C62.6881 43.6653 62.6042 43.7989 62.4501 43.8598C62.6042 43.733 62.6641 43.4422 62.7 43.1632L62.5802 43.3627C62.5494 43.4236 62.534 43.4591 62.4878 43.5233C62.457 43.3407 62.5631 43.1547 62.5409 42.94C62.5546 43.1497 62.3389 43.3881 62.1095 43.3897C62.2704 43.3018 62.3115 43.2325 62.3218 43.0178C62.2927 43.077 62.2773 43.0803 62.2293 43.1125L62.2653 42.4734C62.2653 42.4734 62.1694 42.7151 62.1677 42.7202C62.0701 42.5139 62.1831 42.2062 62.2413 42.0355L62.1437 42.1268C62.1352 41.7666 62.3183 41.5959 62.5237 41.442C62.38 41.4623 62.3765 41.5147 62.255 41.5384C62.3012 41.3389 62.4467 41.2983 62.6093 41.207C62.5511 41.1089 62.4604 41.065 62.4091 40.9043C62.6179 40.9652 62.8627 40.9973 63.0218 40.8671C62.7925 40.8519 62.6761 40.8452 62.5973 40.6524C62.7685 40.7015 62.7873 40.6862 62.9585 40.6609C62.9123 40.5848 62.8969 40.5932 62.8798 40.5002C62.9637 40.6135 63.2358 40.5814 63.4258 40.5713L63.3009 40.4817C63.7664 40.4884 63.953 40.5425 64.0882 40.9026C63.9855 40.8655 63.8383 40.7911 63.7117 40.8536C63.8965 40.9297 63.8555 40.8739 64.0369 40.9973C64.1071 41.0447 64.1173 41.0396 64.191 41.07C64.2834 41.1089 64.2492 41.0886 64.2663 41.1461C64.5093 41.141 64.9578 41.1749 65.1701 41.2611C65.3772 41.3456 65.4884 41.6686 65.5124 41.9323C65.408 42.0016 65.4337 41.9611 65.3583 42.071C65.1392 42.0794 65.0964 41.9864 64.8945 41.9442C64.9236 43.9105 65.2231 45.7365 64.7421 47.6521C64.6052 48.1982 64.2355 49.2245 63.6278 49.424C63.4652 49.4781 63.4806 49.5762 63.3796 49.7334C63.1947 50.0209 63.0201 50.1477 62.8575 50.2085C62.6076 50.3218 61.2143 50.6262 60.8839 50.6312C60.8343 50.616 60.8411 50.6025 60.8839 50.589C61.4847 50.5822 62.2841 50.3252 62.8233 50.0817C63.0681 49.9583 63.2666 49.7115 63.3625 49.4545C63.1691 49.3446 63.0527 49.3091 62.9928 49.0216C62.8798 48.4721 63.3556 47.9852 63.5473 48.6125C63.6261 48.8661 63.5918 49.0656 63.5679 49.3108C64.0968 49.1315 64.4734 48.1999 64.6309 47.5152C65.0468 45.7095 64.8465 43.7769 64.761 41.9408C64.3553 42.0321 64.4083 42.2062 63.9376 42.1031C63.9975 42.2113 64.2166 42.2772 64.3364 42.3685L64.0797 42.3601L64.1584 42.4514C64.3091 42.5849 64.4631 42.6746 64.5658 42.8588C64.4546 42.7439 64.1961 42.5647 63.9719 42.5089C64.0557 42.612 64.1687 42.6272 64.2389 42.7473L63.989 42.7134C64.3279 42.8724 64.6805 43.1446 64.713 43.5605C64.624 43.4354 64.5042 43.0854 64.0403 43.0651C64.3604 43.2731 64.5846 43.3796 64.6771 43.8564C64.5658 43.6789 64.4272 43.5013 64.2389 43.4269C64.4289 43.662 64.6291 43.8851 64.5744 44.345L64.4135 44.066C64.4991 44.3213 64.5384 44.4329 64.5076 44.7491C64.434 44.6375 64.4289 44.4245 64.3519 44.3129C64.4237 45.1329 64.2971 44.7626 64.2457 45.2563C64.2098 45.5979 64.066 45.8701 63.8674 45.9867C63.9753 45.7297 64.1071 45.5624 64.1293 45.2259C64.1037 45.2614 64.1328 45.209 64.0917 45.2885C63.9924 45.4846 63.9154 45.6925 63.7613 45.8481L63.7733 45.6131C63.71 45.6925 63.6997 45.838 63.6843 45.9445C63.6706 46.0459 63.6518 46.1676 63.6192 46.264C63.561 46.4365 63.4207 46.6512 63.282 46.7104C63.3539 46.5362 63.4583 46.3029 63.4053 46.073C63.2872 46.4094 63.2273 46.6208 62.938 46.7493L63.0681 46.215C62.9448 46.2742 62.7873 46.4585 62.8507 46.6952C62.8866 46.8287 63.0766 46.9758 63.217 47.0282C62.9226 47.0401 62.659 46.8338 62.5323 46.7087C62.5648 46.8304 62.6915 46.9758 62.7788 47.0316C62.5854 46.986 62.3355 46.6715 62.3115 46.5329C62.3098 46.5227 62.3046 46.521 62.2995 46.5142C62.3064 46.7526 62.4039 46.9437 62.5186 47.057C62.2396 46.9234 62.0034 46.6512 62.0137 46.3114C61.9127 46.5007 62.0188 46.7493 62.0684 46.9166C61.9794 46.7628 61.851 46.8287 61.7346 46.3131C61.7261 46.2742 61.7261 46.2792 61.7141 46.2454C61.7124 46.2403 61.7055 46.2353 61.7038 46.2234C61.7038 46.2116 61.697 46.2082 61.6953 46.2015L61.6422 46.4094C61.6148 46.3722 61.6422 46.4348 61.6097 46.3486C61.5926 46.3012 61.6045 46.3401 61.5977 46.3046C61.5909 46.2759 61.5891 46.2133 61.5891 46.1829C61.5891 46.0983 61.596 46.0392 61.6011 45.958C61.4231 46.2048 61.5292 46.4551 61.6097 46.7087C61.4796 46.6056 61.3409 46.3942 61.2263 46.242C61.2417 46.5362 61.4505 46.915 61.3153 47.1804L61.2554 46.9065C61.1972 47.74 61.1355 47.3884 61.038 47.713L61.0534 47.3867C61.0311 47.4205 61.0465 47.3867 61.0209 47.4526C60.9815 47.5558 60.9558 47.6809 60.8925 47.7705C60.8103 47.8855 60.7538 47.9429 60.5861 47.9937C60.5758 48.462 60.4663 48.3791 60.3396 48.6649C60.2557 48.8559 60.2283 49.2228 60.2232 49.446C60.2181 49.6827 60.2164 49.7182 60.2181 49.7351L60.2472 49.7571ZM59.4889 49.9685C59.4855 50.0276 59.4889 50.0665 59.5608 50.1409C59.6241 50.2085 59.6857 50.239 59.7696 50.2948L59.8757 50.3945C59.8894 50.3269 59.9476 50.2897 59.9493 50.1122C59.9493 49.8924 59.8192 49.9837 59.8518 49.7571C59.8757 49.6303 59.9202 49.5069 59.9408 49.3666C59.9887 49.0453 60.0195 48.7985 59.9596 48.4891C59.8928 48.533 59.7764 48.7258 59.7131 48.8086C59.5437 49.0318 59.494 49.4325 59.4991 49.7165C59.5026 49.8991 59.494 49.9093 59.4906 49.9668L59.4889 49.9685ZM63.4258 49.331C63.5593 49.1062 63.5046 48.5584 63.2889 48.4806C63.0629 48.6767 63.0886 49.2837 63.4258 49.331Z" fill="#131316"/>
<path fill-rule="evenodd" clip-rule="evenodd" d="M40.7199 41.2374C40.7199 41.2374 40.6994 41.1596 40.6977 41.1546C40.3999 40.3548 40.0216 40.671 39.443 40.5459C39.2068 40.4952 39.2547 40.5189 39.1315 40.3785C38.9637 40.1875 38.6881 40.2078 38.4536 40.1131C38.3852 40.108 38.4194 40.1587 38.3201 40.1892C38.279 40.2027 38.1233 40.2247 38.0103 40.3295C37.9401 40.3954 38.0856 40.3261 37.9504 40.387L38.0856 40.4106C38.0223 40.4563 37.7364 40.556 37.5687 40.671L37.6971 40.7302C37.5858 40.8299 37.4797 40.9601 37.4009 41.0819C37.5122 41.0667 37.5156 41.0075 37.6286 40.994C37.5841 41.0109 37.3838 41.2493 37.365 41.3135C37.3102 41.5046 37.4848 41.2273 37.3684 41.4521C37.3239 41.5401 37.2845 41.5908 37.2828 41.6973C37.3701 41.6195 37.3239 41.6178 37.4232 41.5604C37.3547 41.7345 37.2982 41.8326 37.2931 42.0557C37.3376 42.0067 37.4009 41.9154 37.4489 41.8698L37.4317 42.2197C37.4506 42.213 37.4591 42.2062 37.4626 42.2011C37.466 42.2045 37.4694 42.2062 37.4745 42.2113C37.43 42.3482 37.4352 42.5258 37.4763 42.656C37.543 42.5697 37.5002 42.519 37.5978 42.4243C37.5926 42.5883 37.5516 42.82 37.5978 42.8859L37.6936 42.705L37.656 43.0888C37.668 43.0837 37.6748 43.0634 37.6782 43.0685C37.6799 43.0736 37.6885 43.0533 37.6919 43.0482L37.7621 42.9349C37.7553 43.2798 37.7313 43.2765 37.5978 43.4929C37.6543 43.4709 37.6782 43.4405 37.7347 43.4709C37.2828 43.6941 36.7933 43.5182 36.4783 43.2562C36.1719 43.0009 35.8724 42.7726 35.6721 42.3736C35.518 42.0659 35.2733 41.5181 35.186 41.1782C35.0781 40.7572 35.0799 40.3599 34.337 40.3143V40.3785C34.0237 40.4478 33.933 40.5425 33.8799 40.8722C33.9792 40.9229 33.8714 40.8773 33.9501 41.2323C33.9587 41.229 33.9638 41.2273 33.9689 41.2273C33.9724 41.2205 33.9775 41.2104 33.9844 41.1968C33.9929 41.1833 34.0066 41.141 34.0186 41.1191C34.0853 41.5164 34.2565 41.7548 34.0391 42.1995C33.9142 42.4565 33.6557 42.7354 33.2603 42.727C32.5191 42.7118 32.1819 41.8393 32.5071 41.1326L32.5208 41.3287C32.6646 41.1292 32.5671 41.0345 32.6475 40.8824C32.7417 40.7082 32.579 40.4123 32.2127 40.3887C32.1323 40.2771 32.2572 40.4259 32.2127 40.3126C31.7369 40.3396 31.4835 40.5138 31.3603 40.8959C31.208 41.3676 30.8571 41.2695 30.8245 41.8089C30.8297 41.8021 30.8365 41.7852 30.8382 41.7903C30.8399 41.7954 30.8485 41.7768 30.8519 41.7717C30.9272 41.6635 30.9375 41.6229 31.0762 41.5536C30.7458 41.9932 30.7989 42.5562 30.4702 43.0093C30.0012 43.6569 29.3781 43.6383 29.2703 44.9249C29.2463 45.2174 29.2463 45.581 29.0238 45.7162C28.9143 45.7839 28.4915 45.8667 28.548 46.2556C28.5907 46.5464 28.993 46.6225 28.5548 46.8811C29.1607 46.8575 28.9399 46.3621 29.1488 45.9529C29.5493 45.165 29.3336 45.0687 29.5253 44.7779C29.563 44.8438 29.5681 45.0146 29.5767 45.094C29.6657 45.9157 29.7342 46.6427 29.2138 47.3562C29.1043 47.5084 28.8971 47.6318 28.9194 47.8584C28.9451 48.1238 29.1111 48.2676 29.1625 49.2009C29.195 49.7723 29.1334 49.5897 29.0478 49.867C29.07 50.053 29.1933 49.9837 29.2018 50.1494C29.2053 50.2069 29.1813 50.2576 29.1762 50.3269L29.1351 50.5027C29.1351 50.5027 29.1265 50.5196 29.1197 50.5264C29.1231 50.5315 29.1316 50.5315 29.1334 50.5382C29.1607 50.6346 29.9259 50.6498 30.0885 50.5771C30.0354 50.3404 29.8523 50.2846 29.6777 50.1663C29.5596 50.0885 29.5493 50.0817 29.539 49.9008C29.5322 49.7605 29.4877 49.6996 29.4637 49.5525C29.3336 49.3429 29.4295 48.4028 29.5185 48.1594C29.6486 47.8043 29.8882 47.4695 30.0508 47.1348C30.0816 47.5862 29.8471 48.0816 29.8934 48.1712C30.0765 48.3301 30.2391 48.4434 30.3898 48.6514C30.4719 48.763 30.7253 49.1654 30.7612 49.2854C30.8434 49.3632 30.9563 49.6049 30.9854 49.7419C31.0779 50.1849 31.0436 49.911 31.2508 50.1494C31.2627 50.3269 31.1823 50.3675 31.2405 50.5399C31.338 50.6329 31.528 50.6228 31.7026 50.6245C31.7968 50.6245 31.8926 50.6228 31.9851 50.6177C32.098 50.6109 32.1648 50.6177 32.2025 50.545C32.1169 50.2728 31.8293 50.2018 31.6188 50.0361C31.4784 49.9245 31.261 49.5593 31.1686 49.3513C31.0539 49.2076 30.7937 48.6463 30.7235 48.4333C30.59 48.0292 30.59 47.6285 30.6243 47.1872C30.6636 46.6901 30.8074 46.5312 30.9307 46.1169C31.018 45.8295 31.1104 45.2445 31.1532 44.9368C31.4955 45.1447 31.5931 45.4372 32.502 45.9225C33.1987 46.2961 33.6437 46.2387 34.4397 46.0899C34.4054 46.7171 34.4773 47.1838 34.3199 47.7891C34.2651 47.9954 34.3832 48.325 34.3832 48.5854C34.3832 48.8661 34.3455 49.1501 34.3199 49.4139C34.289 49.495 34.248 49.5914 34.224 49.6776C34.1675 49.8772 34.2154 49.8332 34.2582 49.9803C34.3455 50.288 34.0734 50.239 34.2189 50.5721C34.4876 50.6718 34.8351 50.665 35.1483 50.6228C35.1517 50.4503 34.8693 50.2863 34.7478 50.1933C34.6553 50.124 34.6126 50.0327 34.628 49.9093C34.6536 49.6979 34.6571 49.7571 34.616 49.5339C34.5561 49.3395 34.5972 48.9506 34.6314 48.7359C34.6827 48.4231 34.7598 48.3555 34.8779 48.1137C35.0028 47.8618 34.8299 47.4712 35.2339 46.7188C35.2904 46.9386 35.3263 47.1449 35.3674 47.3698C35.4188 47.6437 35.3554 47.9041 35.4325 48.1188C35.5968 48.5804 35.6995 48.9236 35.655 49.468C35.5181 49.9482 35.7217 49.752 35.72 50.0378C35.72 50.359 35.5386 50.2288 35.6978 50.5568C35.9117 50.6735 36.3294 50.6397 36.5999 50.5923L36.5776 50.4368L36.3688 50.2407C36.2781 50.1781 36.2113 50.146 36.1428 50.0733C36.0281 49.9499 36.0761 49.916 36.0658 49.7605C36.059 49.6405 36.0093 49.5407 35.9631 49.4342C35.7046 48.5246 35.9939 47.997 35.9853 47.8043C35.9751 47.6065 35.9186 47.4847 35.9254 47.2447L36.0538 45.843C36.0846 45.7331 36.1206 45.75 36.2062 45.679C36.3294 45.5776 36.4338 45.4542 36.5451 45.3645C36.4972 45.5201 36.4287 45.5725 36.3602 45.7095C36.5108 45.657 36.5263 45.5911 36.6341 45.5285C36.6204 45.5928 36.5964 45.6723 36.569 45.7281C36.5108 45.843 36.5177 45.7788 36.4578 45.8718L36.5725 45.865C36.5263 46.0341 36.4526 46.078 36.2592 46.073C36.5382 46.3266 36.7077 46.1186 36.8857 45.9563C36.8994 46.1643 36.8772 46.2116 36.7796 46.3181C36.9148 46.3147 36.9696 46.2978 37.0654 46.2167L37.151 46.1423C37.1373 46.308 37.1099 46.3621 37.0517 46.4957C37.2589 46.4787 37.389 46.3672 37.4968 46.2218L37.5978 46.073C37.6697 46.2539 37.6269 46.4365 37.5653 46.5751C37.7895 46.5058 37.8888 46.3283 37.9795 46.1913C38.0326 46.1119 37.9709 46.1609 38.0463 46.1152C38.0685 46.335 38.0668 46.3824 37.9795 46.5362C38.1729 46.5007 38.3236 46.2708 38.3835 46.1152C38.3989 46.073 38.404 46.0493 38.4177 46.0087L38.4759 45.8887L38.4913 46.166C38.5016 46.1406 38.7395 45.5928 38.76 45.559L38.7155 45.9563C38.9808 45.6841 39.039 45.4592 39.0356 44.9672L39.1007 45.094C39.1109 45.1312 39.1246 45.2191 39.1281 45.2597C39.14 45.3764 39.1349 45.4812 39.1126 45.5843C39.5132 45.0856 39.3044 44.8404 39.3437 44.6257C39.4259 44.7762 39.4156 44.9114 39.4259 45.1076C39.5217 44.766 39.6484 44.9672 39.5286 44.3399L39.621 44.4126L39.5235 44.0289C39.5988 44.0711 39.5663 44.0677 39.6364 44.1202L39.5354 43.8023C39.5765 43.782 39.5303 43.8074 39.6347 43.8412C39.6176 43.4794 39.455 43.0601 39.4824 42.9248C39.4961 42.8572 39.5183 42.9163 39.4909 42.8301C39.4618 42.7371 39.3694 42.6103 39.3266 42.5444L39.3968 42.5308L39.2581 42.2316C39.3489 42.1825 39.2154 42.3009 39.3437 42.2367C39.3335 42.2147 39.1109 41.8444 39.1554 41.7328C39.1931 41.6415 40.025 41.3744 40.1191 41.3608L40.3434 41.4657C40.3434 41.4454 40.3468 41.4251 40.3485 41.4065L40.5967 41.4251C40.6036 41.4082 40.6361 41.3507 40.6361 41.3507L40.696 41.3C40.7199 41.2729 40.7251 41.2983 40.7268 41.3C40.7268 41.3 40.7268 41.2865 40.7268 41.2391L40.7199 41.2374ZM33.9672 41.2188C33.9501 41.2611 34.0032 41.2137 33.9672 41.2188V41.2188Z" fill="#131316"/>
</g>
<defs>
<clipPath id="clip0_17_474">
<rect width="100" height="64" fill="white"/>
</clipPath>
</defs>
</svg>
