<svg width="200" height="128" viewBox="0 0 200 128" fill="none" xmlns="http://www.w3.org/2000/svg">
<g clip-path="url(#clip0_17_1166)">
<path d="M16.744 109.087V113.504H10.6777V127.584H6.06631V113.504H0V109.087H16.744Z" fill="white"/>
<path d="M16.9117 118.393C16.9117 113.091 20.7426 108.675 26.8363 108.675C32.93 108.675 36.7608 113.091 36.7608 118.393C36.7608 123.695 32.93 128.003 26.8363 128.003C20.7426 128.003 16.9117 123.641 16.9117 118.393ZM32.0638 118.336C32.0638 115.546 30.1364 113.145 26.8363 113.145C23.5361 113.145 21.6087 115.546 21.6087 118.336C21.6087 121.125 23.5087 123.526 26.8363 123.526C30.1638 123.526 32.0638 121.095 32.0638 118.336Z" fill="white"/>
<path d="M54.6208 115.604C54.6208 119.496 51.6287 122.174 48.0238 122.174H42.964V127.584H38.3527V109.084H48.0238C51.7143 109.084 54.6208 111.847 54.6208 115.6V115.604ZM47.6028 117.866C48.8318 117.866 49.9238 117.037 49.9238 115.631C49.9238 114.332 48.8044 113.504 47.6028 113.504H42.964V117.866H47.6028Z" fill="white"/>
<path d="M56.4078 127.588V109.087H69.9372V113.504H61.0191V127.584H56.4078V127.588Z" fill="white"/>
<path d="M69.9645 118.393C69.9645 113.091 73.7954 108.675 79.8891 108.675C85.9828 108.675 89.8136 113.091 89.8136 118.393C89.8136 123.695 85.9828 128.003 79.8891 128.003C73.7954 128.003 69.9645 123.641 69.9645 118.393ZM85.1166 118.336C85.1166 115.546 83.1892 113.145 79.8891 113.145C76.5889 113.145 74.6615 115.546 74.6615 118.336C74.6615 121.125 76.5615 123.526 79.8891 123.526C83.2166 123.526 85.1166 121.095 85.1166 118.336Z" fill="white"/>
<path d="M103.846 109.087H108.458V127.588H103.846V120.409H96.0203V127.588H91.4089V109.087H96.0203V116.019H103.846V109.087Z" fill="white"/>
<path d="M120.309 114.582C123.973 114.582 126.906 117.179 126.906 121.071C126.906 124.964 124 127.588 120.309 127.588H111.477V109.087H116.088V114.582H120.309ZM119.888 123.168C121.426 123.168 122.209 122.12 122.209 121.041C122.209 119.962 121.426 118.914 119.888 118.914H116.088V123.165H119.888V123.168ZM128.444 109.087H133.055V127.588H128.444V109.087Z" fill="white"/>
<path d="M153.681 118.031C155.386 118.501 156.81 119.993 156.81 122.282C156.81 125.43 154.212 127.584 151.079 127.584H141.826V123.168H150.213C151.387 123.168 152.004 122.478 152.004 121.815C152.004 121.153 151.415 120.49 150.213 120.49H144.065V116.128H150.104C151.192 116.128 151.781 115.438 151.781 114.775C151.781 114.112 151.25 113.477 150.104 113.477H141.829V109.087H151.024C154.157 109.087 156.587 110.91 156.587 113.865C156.587 115.688 155.495 117.318 153.681 117.923V118.035V118.031Z" fill="white"/>
<path d="M172.02 127.588L170.706 124.162H163.438L162.151 127.588H157.118L164.581 109.087H169.754L177.244 127.588H172.017H172.02ZM164.92 120.297H169.223L167.043 114.663L164.917 120.297H164.92Z" fill="white"/>
<path d="M200 127.588H195.389V115.827L190.551 127.588H187.895L183.057 115.827V127.588H178.446V109.087H184.848L189.237 120.077L193.653 109.087H200V127.588Z" fill="white"/>
<path d="M15.9087 99.8388H184.095C184.352 98.1008 184.557 96.3288 184.704 94.5265C184.892 92.2541 184.988 89.9446 184.988 87.6012C184.988 64.421 175.475 43.432 160.097 28.2423C144.719 13.0492 123.469 3.6554 100.002 3.6554C76.5341 3.6554 55.2849 13.0492 39.9069 28.2423C24.5289 43.432 15.0151 64.421 15.0151 87.6012C15.0151 89.9446 15.111 92.2541 15.2993 94.5265C15.4499 96.3255 15.6519 98.0974 15.9087 99.8388ZM0 99.8388H12.1806C11.9409 98.1684 11.7526 96.4912 11.6123 94.8139C11.4137 92.4232 11.3144 90.0156 11.3144 87.6012C11.3144 63.4099 21.2424 41.5113 37.2914 25.6588C53.3404 9.80635 75.5105 0 99.9983 0C124.486 0 146.66 9.80635 162.709 25.6588C178.758 41.5113 188.686 63.4099 188.686 87.6012C188.686 90.0156 188.583 92.4232 188.388 94.8139C188.247 96.4912 188.059 98.1684 187.819 99.8388H200V103.494H0V99.8388Z" fill="#131316"/>
<mask id="mask0_17_1166" style="mask-type:luminance" maskUnits="userSpaceOnUse" x="15" y="3" width="170" height="97">
<path d="M15.2959 94.5266C15.4465 96.3256 15.6485 98.0975 15.9052 99.8389H184.091C184.348 98.0975 184.553 96.3289 184.701 94.5266C184.889 92.2542 184.985 89.9447 184.985 87.6013C184.985 64.4211 175.471 43.4321 160.093 28.239C144.715 13.0493 123.466 3.6521 99.9983 3.6521C76.5307 3.6521 55.2815 13.0459 39.9035 28.239C24.5254 43.4321 15.0117 64.4177 15.0117 87.6013C15.0117 89.9447 15.1076 92.2542 15.2959 94.5266Z" fill="white"/>
</mask>
<g mask="url(#mask0_17_1166)">
<path d="M15.0136 2.8358L14.5385 99.8364L184.982 100.667L185.457 3.66686L15.0136 2.8358Z" fill="white"/>
</g>
<path fill-rule="evenodd" clip-rule="evenodd" d="M92.3024 37.0918L91.4671 6.28627L96.3147 32.2055L92.3024 37.0918ZM52.7173 73.9806L22.3413 61.5772L54.3229 69.1822L25.4052 53.6949L56.4078 64.5597L29.2874 46.1711L58.9685 60.1773L33.9398 39.0902L61.9777 56.0857L39.318 32.5301L65.4046 52.3254L45.3638 26.5584L69.2114 48.9405L52.0053 21.246L73.3538 45.9682L59.1739 16.6506L77.7905 43.4388L66.791 12.816L82.4703 41.3829L74.771 9.79289L87.3419 39.8206L83.0284 7.60844L91.9738 37.4975L74.7984 58.4189L65.8838 54.0162L52.7276 73.9806H52.7173ZM49.8108 78.3934L20.1297 69.73L52.7139 73.9873L49.8108 78.3934ZM46.6716 83.1546L18.7912 78.0688L49.4856 78.8804L46.6681 83.1546H46.6716ZM43.2036 88.4162L18.3427 86.4989L45.8636 84.3787L43.2002 88.4162H43.2036ZM39.2701 94.3879L27.7366 94.6923L27.2402 94.53L27.1135 94.7092L18.7946 94.929L41.6631 90.7562L39.2701 94.3846V94.3879ZM167.296 92.3929L181.205 94.9324L169.833 94.6314L167.296 92.3962V92.3929ZM159.36 84.7811L181.654 86.4989L162.301 87.9901L160.391 86.3061L159.36 84.7777V84.7811ZM155.293 78.7552L181.205 78.0688L157.721 82.3532L155.293 78.7552ZM151.689 73.4125L179.87 69.73L154.253 77.2099L151.689 73.4125ZM148.395 68.533L177.659 61.5738L151.038 72.4454L148.395 68.5296V68.533ZM145.307 63.9578L174.595 53.6949L147.995 67.9412L145.307 63.9612V63.9578ZM102.713 37.413L108.533 6.28627L107.65 38.769L116.975 7.60844L112.662 39.8206L125.229 9.79289L117.53 41.3829L133.209 12.816L122.209 43.4388L140.826 16.6506L126.646 45.9682L147.995 21.246L130.789 48.9405L154.636 26.5584L134.595 52.3254L160.682 32.5301L138.022 56.0857L166.06 39.0902L141.031 60.1773L170.713 46.1711L145.047 63.5723L144.342 62.5274L135.722 67.2243L125.024 51.3718L112.542 48.1425L102.716 37.413H102.713ZM99.9983 5.84668L102.473 37.1526L97.9168 32.1784L99.9983 5.84668Z" fill="#FF4405"/>
<path fill-rule="evenodd" clip-rule="evenodd" d="M97.0952 39.7766L80.7484 59.5922L86.397 62.2366L78.3725 71.2618L95.9107 56.8025L91.7513 55.7745L104.384 47.5541L97.0987 39.7766H97.0952ZM103.487 63.109C103.487 63.109 109.132 54.4489 110.026 54.3035C110.916 54.1581 121.172 54.3035 121.172 54.3035C121.172 54.3035 145.099 88.5041 143.315 87.7703C141.531 87.0365 126.376 82.7792 126.376 81.6058C126.376 80.4324 126.523 69.7164 126.523 69.7164L100.07 88.0645L118.944 67.6605L116.862 59.44L103.487 63.109ZM141.829 71.3328L145.246 69.1314L158.621 89.6808L141.829 71.3328ZM48.7975 89.3866C48.7975 88.6528 67.2224 60.0284 67.2224 60.0284L77.6262 64.1403L66.6302 78.674L68.2631 67.6639L48.7975 89.3866Z" fill="#FF4405"/>
<path fill-rule="evenodd" clip-rule="evenodd" d="M66.2776 98.9968L66.5138 101.665H20.431C20.3454 101.222 20.2667 100.775 20.188 100.329C21.53 99.8219 22.9473 99.1523 23.4436 98.4963L21.0233 98.7094L21.7696 97.9316C20.7426 98.3509 20.5748 98.6012 19.8936 98.5673C19.8285 98.1413 19.7635 97.7152 19.7018 97.2858C20.164 96.8834 20.6536 96.4945 21.0233 96.1665C21.8278 95.4428 22.5673 94.8274 23.1937 94.0497L21.8175 95.01L21.7525 94.7395L21.5163 93.9719L23.6217 91.0773C22.1736 90.9353 22.937 91.3647 21.6532 91.3242L25.6244 85.6703C25.2683 85.7548 24.7274 86.1031 24.2858 85.8698C24.1215 85.2138 24.6042 84.7708 25.039 84.1283C25.3984 83.594 25.864 82.9414 26.1379 82.3869C26.8876 83.0598 27.6168 84.6829 28.1885 85.623C28.1029 85.6838 28.055 85.65 27.9044 85.6466C26.4426 85.6196 27.4936 85.5249 27.1341 85.8698C27.9455 86.8166 28.6986 88.3383 29.5373 89.4001L28.4624 89.6605C27.7572 89.7416 28.2809 89.7754 26.3946 88.5818C26.8842 89.6875 28.7979 90.1339 30.8109 92.7478C31.6667 91.8923 32.8375 90.9995 33.6249 90.2962C34.7889 89.2547 35.8536 88.3687 36.7539 87.2461L34.7752 88.6291L34.6793 88.2369L34.337 87.1311L37.3736 82.9549C35.2887 82.7521 36.3876 83.3709 34.5355 83.3134L40.2595 75.1606C39.746 75.2789 38.9689 75.7828 38.3287 75.448C38.0925 74.5046 38.7943 73.8621 39.4174 72.9356C39.9377 72.1612 40.6087 71.2245 41.0058 70.4231C42.0842 71.3936 43.1352 73.7336 43.9602 75.0896C43.837 75.1809 43.7685 75.1301 43.5529 75.1234C41.4406 75.0862 42.9606 74.9509 42.4402 75.448C43.6076 76.8141 44.6963 79.0054 45.9047 80.5372L44.3505 80.9159C43.3372 81.0309 44.0972 81.0782 41.3721 79.357C42.1766 81.183 45.672 81.7613 48.9995 87.1953L48.13 86.8335L43.2208 86.1471C44.1862 89.2513 47.7637 91.6217 49.852 93.7386C47.952 94.6651 49.1502 92.6971 46.0656 93.3801C46.7127 94.6718 46.0143 93.9685 46.8325 94.9931L49.4035 97.0017L49.3213 96.7379L51.0502 94.3607C49.8622 94.2458 50.4887 94.5975 49.4343 94.5636L52.6934 89.9208C52.4024 89.9885 51.9608 90.2759 51.5945 90.0865C51.461 89.5455 51.8581 89.1837 52.2107 88.6528C52.5085 88.2132 52.892 87.6789 53.1179 87.2258C53.7307 87.777 54.3298 89.1093 54.8022 89.8803C54.7303 89.931 54.6927 89.9039 54.5694 89.9005C53.3644 89.8803 54.2305 89.8025 53.9361 90.0865C54.6003 90.8609 55.2199 92.1121 55.908 92.9811L55.0213 93.1975C54.4462 93.2651 54.8776 93.2888 53.3267 92.3082C53.7547 93.2787 55.5143 93.6337 57.2842 96.1868L57.1507 95.7438L59.0131 93.184C57.7327 93.0555 58.4071 93.4376 57.2705 93.4038L60.783 88.3958C60.468 88.4702 59.9921 88.7813 59.5985 88.575C59.4547 87.9934 59.8826 87.6011 60.266 87.0297C60.5844 86.5562 60.9986 85.9814 61.2417 85.4911C61.9024 86.0862 62.5494 87.5234 63.0561 88.3552C62.9808 88.4093 62.9363 88.3789 62.8062 88.3755C61.5087 88.3518 62.4399 88.2673 62.1215 88.575C62.8404 89.4136 63.5046 90.7595 64.2509 91.6995L63.2958 91.9294C62.6727 92.0005 63.1383 92.0309 61.4676 90.9725C61.9469 92.0613 63.9804 92.4299 65.966 95.4936C66.0242 95.5882 66.0858 95.6863 66.1475 95.7844L65.9831 95.7167L65.6134 95.5646L62.6008 95.1419C63.1177 96.8056 64.8637 98.1278 66.1509 99.3045L66.1201 99.2132L66.2776 98.9968Z" fill="#131316"/>
<path fill-rule="evenodd" clip-rule="evenodd" d="M180.531 97.6848L178.737 97.4311C178.987 98.2359 179.572 98.9393 180.233 99.5852C180.117 100.282 179.99 100.975 179.86 101.665H132.651L133.459 94.0327C134.397 93.1941 135.253 92.484 135.979 91.5778L134.383 92.6903L134.311 92.3792L134.034 91.4865L136.478 88.1252C134.797 87.9629 135.684 88.46 134.191 88.4127L138.799 81.8526C138.389 81.9472 137.762 82.3564 137.249 82.0859C137.057 81.325 137.622 80.8077 138.122 80.0604C138.543 79.4415 139.08 78.6841 139.399 78.0416C140.268 78.8227 141.114 80.7062 141.778 81.7984C141.679 81.8695 141.624 81.8289 141.449 81.8221C139.751 81.7951 140.973 81.6835 140.556 82.0859C141.497 83.1815 142.37 84.9466 143.342 86.1809L142.093 86.4852C141.278 86.5799 141.887 86.6137 139.696 85.2307C140.343 86.7016 143.157 87.1683 145.831 91.5406L145.133 91.2498L141.182 90.6918C141.562 91.9125 142.439 92.9912 143.438 93.9719C144.054 93.4308 144.722 92.9033 145.218 92.4603C146.249 91.5372 147.197 90.7527 147.995 89.7551L146.235 90.9792L146.156 90.6343L145.852 89.6537L148.542 85.9509C146.69 85.7683 147.67 86.3195 146.026 86.2688L151.103 79.0358C150.648 79.144 149.96 79.5903 149.391 79.2928C149.183 78.4541 149.802 77.8861 150.357 77.061C150.819 76.3779 151.415 75.5461 151.764 74.8359C152.722 75.6982 153.654 77.7745 154.386 78.9749C154.277 79.0527 154.215 79.0087 154.023 79.002C152.151 78.9715 153.5 78.8532 153.037 79.2928C154.071 80.5033 155.037 82.4477 156.108 83.8071L154.735 84.1418C153.835 84.2467 154.506 84.2839 152.093 82.7588C152.753 84.267 155.485 84.8181 158.238 88.7643L159.511 86.9485C159.172 87.0296 158.666 87.361 158.244 87.1412C158.09 86.519 158.549 86.0997 158.957 85.4911C159.299 84.9838 159.741 84.3684 159.997 83.8443C160.706 84.48 161.397 86.0152 161.938 86.9045C161.86 86.9654 161.815 86.9316 161.671 86.9248C160.285 86.9011 161.284 86.8132 160.942 87.1412C161.709 88.0339 162.421 89.4745 163.215 90.4788L162.195 90.7256C161.531 90.8034 162.027 90.8338 160.24 89.7044C160.754 90.8676 162.938 91.2599 165.061 94.5569L166.656 92.369C165.307 92.2372 166.019 92.6362 164.824 92.599L168.515 87.3407C168.183 87.4185 167.683 87.7465 167.269 87.5301C167.118 86.9214 167.57 86.5055 167.97 85.907C168.306 85.4099 168.741 84.8046 168.994 84.2906C169.689 84.9162 170.367 86.4243 170.901 87.2968C170.822 87.3543 170.778 87.3238 170.637 87.3171C169.275 87.2934 170.257 87.2089 169.922 87.5301C170.672 88.4093 171.373 89.8228 172.154 90.8102L171.154 91.0536C170.5 91.128 170.986 91.1551 169.234 90.0493C169.751 91.2261 172.003 91.598 174.15 95.1013L173.588 94.868L170.422 94.4216C171 96.2848 173.037 97.7355 174.4 99.0306C174.766 98.7026 175.105 98.378 175.406 97.9992L174.383 98.7127L174.338 98.5098L174.16 97.9417L175.724 95.7877C174.65 95.6829 175.214 96.0041 174.259 95.9737L177.21 91.7705C176.947 91.8314 176.546 92.0917 176.217 91.9193C176.094 91.4323 176.457 91.101 176.775 90.6242C177.046 90.2285 177.392 89.7416 177.594 89.3291C178.152 89.8295 178.693 91.0367 179.117 91.7367C179.055 91.7806 179.021 91.757 178.908 91.7502C177.82 91.7333 178.604 91.6623 178.337 91.9193C178.939 92.6226 179.497 93.7521 180.12 94.5433L179.323 94.7395C178.799 94.797 179.189 94.8206 177.785 93.9347C178.117 94.6887 179.336 95.0303 180.688 96.5688C180.637 96.9408 180.586 97.3128 180.531 97.6848Z" fill="#131316"/>
<path fill-rule="evenodd" clip-rule="evenodd" d="M93.6512 97.482C93.8703 97.81 93.8395 99.1052 93.7539 99.4974C93.4356 99.352 93.504 98.9327 93.5075 98.5337C93.5143 98.155 93.528 97.8269 93.6478 97.4787L93.6512 97.482ZM82.4087 99.4907L82.3676 99.7104C82.4635 99.7882 82.5936 99.8795 82.6792 99.9336C82.7134 100.238 82.573 100.394 82.6004 100.691C83.0729 100.999 83.9492 100.874 84.5141 100.786C84.5244 100.519 84.0211 100.147 83.8055 100.018C83.6172 99.9066 83.4905 99.8559 83.3981 99.653C83.3056 99.4568 83.2748 99.2066 83.2098 99.0713C83.1002 96.9207 82.7134 97.7593 83.5966 95.3821C83.8055 94.8208 84.0348 94.3406 84.3464 93.8909C84.7127 93.3634 84.7674 93.3735 85.1543 93.0421C85.2707 92.9407 85.3563 92.846 85.4693 92.7784C85.4521 94.2155 84.9112 95.23 84.8873 95.6087C84.8633 95.9874 85.2433 96.1666 85.5446 96.6536C85.7979 97.0593 85.9759 97.3434 86.1882 97.7695C86.4038 97.9622 86.6127 98.5709 86.7325 98.838C86.8489 99.0984 86.8489 99.1694 86.8523 99.4839C86.8592 99.9505 86.8523 99.795 87.1399 100.011C87.1844 100.684 86.5202 100.945 88.5709 100.843L88.9714 100.776C88.8893 100.231 88.095 100.113 87.7493 99.4737C87.4685 98.9564 87.1947 98.2936 86.8626 97.7898C86.4757 96.4541 85.8766 96.2343 86.5271 93.9281C86.6983 93.3126 86.9619 92.7987 87.1399 92.1832C87.3487 91.4494 87.1056 90.7157 87.0201 90.0022C87.561 90.3302 88.119 91.091 89.413 91.6016C90.5873 92.0649 91.6657 92.0446 92.3675 91.2229C92.3229 91.7301 91.8711 91.8857 91.7136 92.2542C91.9019 92.1866 92.0011 92.0885 92.1963 91.9972C92.0251 92.4233 91.5424 92.474 91.5184 93.1842C91.6246 92.9069 91.9087 92.6161 92.2031 92.562C91.7855 92.9136 91.4705 93.4648 91.6211 94.2561C91.7033 94.06 91.7204 93.8976 91.8231 93.6677C91.8094 94.3237 91.7684 94.5909 92.121 95.0541C92.0936 94.557 92.0936 94.5503 92.3127 94.1885C92.2853 94.6855 92.2065 95.0135 92.2682 95.5512L92.4291 95.2164C92.4359 95.7304 92.364 95.8792 92.5386 96.3459C92.5763 95.886 92.5831 95.815 92.7954 95.4836C92.7817 95.8386 92.7338 96.0314 92.8639 96.3594C93.0111 96.7313 92.946 96.8057 92.9837 97.242C93.0384 97.8844 93.0179 98.581 92.9392 99.1795C92.9049 99.4196 92.833 99.5921 92.7885 99.8085C92.6961 100.251 92.8775 100.113 93.0487 100.299C93.2678 100.536 93.1001 100.603 93.0179 100.924C92.9255 101.279 93.1069 101.208 93.2302 101.479C93.6102 101.482 94.0073 101.536 94.3496 101.526C94.7228 101.513 95.0959 101.465 95.4759 101.476L95.6676 101.323C95.5307 101.029 95.25 100.82 95.0001 100.661C94.5721 100.39 94.6303 100.343 94.4797 99.7815C94.3085 99.0071 94.2572 98.0129 94.5345 97.2453C94.7022 96.7854 94.6166 96.4879 94.87 96.1666C95.0822 95.8961 95.2979 95.6932 95.3938 95.2638L95.5375 95.5546C95.6813 95.0879 96.1093 94.716 96.2976 94.1039C96.4687 93.5494 96.39 92.7851 96.6673 92.3489C96.6844 92.9272 96.7392 93.3465 97.0028 93.7928C97.1637 94.0633 97.5505 94.6281 97.7662 94.7396C97.6053 94.53 97.5676 94.1141 97.6156 93.7725C97.6703 93.3803 97.797 93.2619 97.8963 92.9745C97.8792 93.573 97.7012 93.874 97.9031 94.5604C98.0298 94.9966 98.3379 95.4498 98.6563 95.585C98.4954 95.3077 98.3824 95.23 98.3413 94.8276C98.2968 94.4218 98.4166 94.2189 98.4235 93.9754C98.5296 94.7194 98.6392 95.2502 99.1185 95.5816C98.8754 94.5739 98.8172 94.814 99.0911 93.7286C99.1013 94.6348 99.0979 95.5275 99.8305 95.8386C99.5566 95.2536 99.4094 94.6145 99.8305 93.9923C99.8134 94.8783 99.899 95.5715 100.532 95.886C100.224 95.2063 100.074 94.8208 100.532 94.0667C100.508 94.7768 100.467 95.2976 101.042 95.6729C100.721 94.8208 100.834 94.4725 101.32 93.6508C101.361 94.0532 101.268 94.1411 101.22 94.459C101.505 94.1479 101.652 93.7691 101.837 93.3194C101.95 93.7387 101.864 94.1614 101.744 94.5165C101.898 94.3711 102.056 94.131 102.162 93.8909C102.22 93.759 102.251 93.6373 102.292 93.4952C102.299 93.4648 102.34 93.3329 102.347 93.3093C102.429 93.1267 102.371 93.2315 102.456 93.1469C102.504 93.5865 102.443 93.6136 102.402 93.9788C103.059 93.2924 103.086 92.4267 103.401 91.9939L103.425 92.6397C103.932 92.0412 104.014 91.4934 104.093 90.5635C104.165 91.1282 104.247 91.0369 104.185 91.7639C104.377 91.5306 104.555 91.0403 104.627 90.692C104.764 90.0427 104.61 89.9582 104.555 89.4544C104.644 89.5829 104.771 89.62 104.897 89.8229C105.031 90.036 105.02 90.1949 105.12 90.3809C105.308 89.5085 104.938 89.2853 104.61 88.8355C104.993 88.9539 105.085 89.1399 105.301 89.3225C105.233 88.8085 104.818 88.3418 104.729 87.838C104.966 87.9733 104.979 88.095 105.253 88.2843C105.185 87.7264 104.918 87.2192 104.685 86.783C104.89 86.881 104.832 86.8946 104.996 87.0095C104.928 86.6139 104.593 86.3468 104.329 86.1439C104.377 85.9579 104.209 86.2622 104.384 86.1033C104.572 85.9342 104.428 86.127 104.452 86.0221L104.079 85.7448C104.086 85.5453 104.045 85.7685 104.134 85.64C104.274 85.4439 104.168 85.755 104.171 85.6062C103.329 84.913 103.439 84.6729 104.596 84.0744C105.257 83.7329 105.38 84.1116 106.017 84.071C106.024 84.0609 106.03 84.0406 106.034 84.0338L106.027 83.7937L106.338 83.7159C106.263 83.3169 106.126 83.0836 105.948 82.7826C105.592 82.1875 104.716 82.2146 104.048 82.1875C103.459 82.1638 103.562 81.9609 103.141 81.8392C103.425 81.5585 103.559 81.5585 103.319 81.0276C103.251 81.1697 103.316 81.19 103.305 81.3996C103.271 81.0141 102.874 80.7707 102.467 80.7436C102.651 80.8315 102.71 80.8721 102.84 80.9972C101.929 80.7842 102.059 81.0243 101.309 81.0209C101.412 81.1528 101.388 81.0851 101.44 81.2373C100.899 81.4165 100.806 81.8798 100.145 81.6735C100.255 81.8561 100.413 81.9237 100.604 82.0083C100.614 82.015 100.638 82.0252 100.649 82.0286L100.734 82.0725C100.443 82.2348 100.341 82.2281 100.077 82.0861C100.163 82.3464 100.193 82.1706 100.33 82.4242C100.214 82.617 100.351 82.4918 100.132 82.6068L99.875 82.7184C100.05 82.8063 100.077 82.7759 100.3 82.786C100.142 82.9044 99.5909 83.2222 99.5224 83.3203L100.118 83.2628C99.7929 83.4928 99.4882 83.6821 99.4574 84.2502L99.5156 84.1792C99.6662 84 99.8168 83.8072 100.053 83.7464C99.8203 83.8478 99.4471 84.3787 99.4916 84.7676C99.6457 84.3889 99.6662 84.5444 99.8031 84.3381C99.7381 84.6188 99.5019 84.8285 99.5019 85.285C99.5566 85.1125 99.6559 84.9806 99.8202 84.8995C99.7449 85.3999 99.6662 85.4912 99.7929 86.0559L99.9503 85.782L99.8716 86.7356L100.221 86.2622L100.142 87.182L100.293 86.9859C100.293 86.9859 100.317 86.9554 100.323 86.9487L100.389 86.8709C100.371 87.1245 100.337 87.2665 100.217 87.4525C100.169 87.5235 100.118 87.5911 100.087 87.652C99.9298 87.9699 100.156 87.466 100.053 87.7399C99.9298 88.0781 98.7898 88.0071 98.0503 87.1245C97.6532 86.6511 97.506 85.8869 97.15 85.312C96.4345 84.1522 95.4759 83.8749 95.1336 82.4715C95.0548 82.1537 95.0993 82.2923 95.1986 82.2518C95.1712 82.032 95.0925 81.7885 95.1165 81.6296C95.1302 81.545 95.2192 81.4977 95.048 81.1561C94.8152 80.6963 94.9419 81.0006 94.9076 80.7368C94.8597 80.3615 94.0963 80.0267 93.8156 79.9929C93.3397 79.9354 92.7646 80.2499 92.566 80.605C92.2853 81.1054 92.6311 82.3667 92.3572 83.2189C92.0628 84.1285 91.2275 84.3178 90.5393 83.6652C89.17 82.36 90.1559 81.0851 89.5226 80.3784C89.057 79.861 88.499 79.9489 87.9102 80.1823C87.6534 80.2837 87.3247 80.7537 87.2426 81.004C87.1604 81.2508 87.0577 81.2745 86.9927 81.4706C86.7702 82.1402 87.1262 81.2948 87.0269 81.9001C86.9345 82.4682 87.157 81.8494 87.0269 82.245C86.9071 82.6102 86.7085 82.9382 86.6264 83.3102C86.7188 83.185 86.8147 83.1377 86.8797 83.0464C86.7804 83.3271 86.6264 83.601 86.6298 83.9662C86.7085 83.7903 86.7393 83.6145 86.8934 83.5131C86.5442 85.9105 84.699 86.0559 83.3707 87.5134C82.6141 88.3418 82.9256 89.9041 82.484 90.4012C82.1896 90.7359 81.7138 90.8408 81.6076 91.4292C81.4638 92.217 82.1143 92.3455 81.4433 92.8832C82.1896 92.873 82.1691 92.4098 82.4635 91.9634C82.9256 91.2635 83.0694 91.7944 82.9804 90.5398C82.9462 90.0596 83.066 89.2345 83.1892 88.8017C83.3673 88.1728 83.559 87.9563 84.004 87.696C83.7678 88.2945 83.6446 88.4771 83.6822 89.2447C83.7678 90.9997 83.939 92.2339 83.0112 93.7928C82.7374 94.2527 82.4464 94.4725 82.193 94.8073C81.9294 95.1589 82.2238 95.8488 82.2992 96.2681C82.686 98.4627 82.3847 99.1187 82.4156 99.4873L82.4087 99.4907Z" fill="#131316"/>
<path fill-rule="evenodd" clip-rule="evenodd" d="M120.494 99.5141C120.511 99.5784 120.525 99.646 120.529 99.7136C120.546 100.001 120.457 100.062 120.669 100.288C120.796 100.424 120.919 100.485 121.087 100.596L121.47 100.955L121.511 101.239C121.371 101.256 120.268 101.239 119.953 101.232C119.748 101.249 118.32 101.222 118.32 101.222C118.029 100.617 118.348 100.802 118.348 100.214C118.348 99.7745 118.067 99.9504 118.067 99.504C118.057 99.4364 118.067 99.3451 118.122 99.2098C118.355 98.6113 118.755 97.7794 118.594 97.0828C118.512 96.7244 118.509 96.3423 118.762 96.1326L118.433 96.1766L118.536 95.6964C118.536 95.5443 118.557 95.6288 118.492 95.5307L118.368 95.8925C118.207 95.4462 118.413 95.0708 118.574 94.7733C118.286 94.9423 118.344 94.9998 118.177 95.2602C117.961 94.7868 118.447 94.3878 118.598 94.2018C118.355 94.2931 118.327 94.3438 117.988 94.3607L118.053 94.2931C118.053 94.2931 118.077 94.2694 118.084 94.2593C118.091 94.2525 118.105 94.239 118.115 94.2288C118.249 94.097 118.42 93.9651 118.492 93.7994L117.923 93.8806C118.136 93.6269 118.471 93.7115 118.735 93.14C117.557 93.282 116.006 92.9844 115.041 92.5753C113.295 91.8347 112.84 91.1787 112.302 90.8981C112.165 91.172 112.004 92.4907 111.898 92.9439C111.727 93.6641 111.508 94.1849 111.296 94.8375C110.498 97.2992 111.135 98.0871 112.61 100.17C112.764 100.387 112.816 100.451 112.905 100.498H112.908H112.911L112.918 100.502H112.922L112.925 100.505H112.929H112.932H112.935L112.939 100.508H112.942H112.946H112.949L112.953 100.512H112.956L112.959 100.515H112.963V100.518H112.97H112.976L112.983 100.522H112.987H112.994L113 100.525H113.007H113.014H113.021L113.028 100.529H113.031H113.038V100.532H113.042L113.048 100.535H113.052H113.062V100.542H113.069L113.072 100.549L113.079 100.552H113.086L113.1 100.559L113.117 100.566L113.131 100.573H113.137L113.148 100.579L113.161 100.586H113.165L113.178 100.596H113.182L113.185 100.6C113.202 100.61 113.223 100.616 113.244 100.627L113.264 100.637C113.439 100.721 113.644 100.894 113.819 101.012C113.836 101.083 113.832 101.151 113.774 101.191C113.606 101.313 113.442 101.344 113.089 101.347C112.733 101.35 112.062 101.347 112.062 101.347L111.98 101.212C112.018 101.188 112.038 101.158 112.052 101.11C112.052 101.11 112.056 101.097 112.059 101.087V101.08V101.073V101.066V101.059V101.056V101.053V101.049V101.043V101.039V101.036V101.032V101.026V101.019V101.016V101.012V101.005V100.999V100.995V100.992V100.985V100.978V100.972V100.965V100.958V100.948V100.941V100.934V100.928V100.917V100.911V100.904V100.897V100.89V100.887V100.88V100.873V100.867V100.86V100.857V100.846V100.84V100.833V100.826V100.816C112.049 100.806 112.042 100.799 112.032 100.792C112.032 100.792 112.021 100.786 112.018 100.782C112.014 100.779 112.011 100.775 112.004 100.772C112.001 100.772 111.997 100.765 111.994 100.762C111.994 100.762 111.987 100.755 111.984 100.752L111.977 100.745H111.97V100.738H111.967L111.96 100.731C111.737 100.589 111.607 100.654 111.498 100.255C111.385 99.832 111.357 99.7441 111.148 99.3789C110.83 98.8311 110.542 98.3577 110.156 97.9282C109.93 97.678 109.817 97.563 109.546 97.3162C108.762 96.6027 109.618 96.9138 109.854 94.5501C109.485 94.7597 108.968 95.5104 108.735 95.9703C108.125 97.1775 108.095 98.804 108.574 100.096C108.749 100.569 108.844 100.498 109.218 100.731C109.594 100.965 109.611 101.11 109.875 101.354C109.861 101.496 109.875 101.469 109.817 101.489H107.834H107.889C107.995 100.762 108.119 100.742 107.619 100.397C107.585 99.8793 107.67 99.4296 107.615 98.8378C107.407 96.623 106.592 96.0819 107.246 95.5476C108.047 94.895 108.447 94.0023 108.526 92.7917C108.588 91.8449 108.495 90.6411 108.416 89.6875C108.173 89.9918 107.924 91.5169 107.745 92.0647C107.348 93.282 107.814 93.4038 106.404 93.7419C106.527 93.5086 106.777 93.4714 106.732 93.2279C106.688 92.9845 106.493 92.9371 106.523 92.5347C106.571 91.899 107.044 91.9058 107.407 91.6217C107.728 91.3715 107.735 90.729 107.828 90.2691C107.924 89.7923 108.06 89.346 108.252 88.9233C108.454 88.4803 108.718 88.1286 109.005 87.8987C110.053 87.0567 111.066 86.4987 111.405 84.9365C111.299 85.021 111.272 85.0345 111.186 85.1664L111.436 84.2128C111.367 84.1858 111.453 84.2534 111.378 84.1892C111.474 83.9863 111.474 83.8206 111.6 83.6042C111.71 83.408 111.874 83.3269 111.956 83.1612C111.662 83.2119 111.583 83.4655 111.405 83.638C111.439 82.938 111.833 83.0631 112.203 82.8027L111.631 82.8467C111.706 82.5897 111.994 82.6134 112.158 82.468C112.076 82.4477 112.028 82.4443 111.932 82.4105L111.771 82.3293C111.765 82.3091 111.744 82.3124 111.734 82.3023C112.11 82.1839 111.939 82.2211 112.343 82.2347C112.288 82.1197 111.991 82.0318 112.186 81.7545C112.316 81.5685 112.542 81.6936 112.699 81.7545C112.644 81.2946 112.655 81.3014 112.997 81.0951L113.055 81.5313C113.196 81.0207 113.24 80.7908 113.812 80.669C113.692 80.7941 113.548 80.8753 113.569 81.1221C113.579 80.6487 115.013 80.3376 115.571 80.8043C115.571 80.8854 115.571 80.8415 115.428 80.9193C115.828 80.9936 115.986 81.2608 115.982 81.7105L115.784 81.3893C115.876 81.8728 115.873 81.9269 115.589 82.1806C115.435 82.1129 115.513 82.1265 115.376 82.0352C115.137 81.8762 115.28 81.9709 115.113 81.9641L114.983 81.9777C114.329 82.2583 115 84.8993 116.164 85.2983C118.139 85.9712 118.974 82.2448 118.42 81.9574C118.3 81.8965 118.231 81.981 118.118 82.0047C117.882 82.0521 117.923 82.1265 117.728 82.2144C117.417 81.8965 117.571 81.6767 117.694 81.3014C117.543 81.3758 117.495 81.4637 117.42 81.6361C117.403 81.1796 117.745 80.8009 118.142 80.6792C118.7 80.5101 119.087 80.7096 119.522 80.9091C119.44 80.7333 119.423 80.7975 119.286 80.642C119.632 80.7028 119.71 80.7603 119.793 81.0714L119.854 80.7671C120.176 81.0072 120.032 80.8719 120.19 81.2642C120.484 81.1424 120.755 81.2709 120.871 81.4873C120.679 81.5753 120.662 81.4873 120.532 81.6902C120.984 81.5347 121.282 81.7849 121.425 82.0859C121.282 82.0081 121.162 81.9202 120.912 81.9202C121.381 82.4849 121.562 82.5288 121.518 83.4588L121.217 82.8095V83.1308L121.049 82.8197C121.097 83.594 121.997 84.9771 122.001 85.1461C121.99 85.0278 121.699 84.7302 121.538 84.6254C121.706 85.0717 122.035 85.535 122.292 85.8732C122.548 86.2147 122.973 86.6374 123.137 86.9857C122.867 86.6408 122.476 86.5089 122.175 86.2079C122.357 86.6509 122.908 86.9823 123.144 87.4456L122.946 87.3137C123.134 87.9798 124.804 89.0146 125.41 87.8141C125.15 87.9156 124.969 88.0238 124.63 88.0305C125.099 87.9088 125.386 87.4557 125.544 87.0262C125.376 87.3306 125.208 87.5977 124.9 87.7195C125.208 87.4658 125.328 86.8842 125.4 86.3263L125.16 86.7253C125.099 86.847 125.068 86.918 124.976 87.0465C124.914 86.6813 125.126 86.3094 125.082 85.8799C125.109 86.2992 124.678 86.776 124.219 86.7794C124.541 86.6036 124.623 86.4649 124.644 86.0355C124.585 86.1538 124.555 86.1606 124.459 86.2248L124.531 84.9466C124.531 84.9466 124.339 85.4302 124.335 85.4403C124.14 85.0278 124.366 84.4123 124.483 84.0708L124.287 84.2534C124.27 83.5332 124.637 83.1916 125.047 82.8839C124.76 82.9245 124.753 83.0293 124.51 83.0766C124.602 82.6776 124.893 82.5965 125.219 82.4139C125.102 82.2178 124.921 82.1298 124.818 81.8086C125.236 81.9303 125.725 81.9946 126.044 81.7342C125.585 81.7038 125.352 81.6902 125.195 81.3047C125.537 81.4028 125.575 81.3724 125.917 81.3217C125.825 81.1695 125.794 81.1864 125.76 81.0004C125.927 81.227 126.472 81.1627 126.852 81.1424L126.602 80.9632C127.533 80.9767 127.906 81.0849 128.176 81.8052C127.971 81.7308 127.677 81.582 127.423 81.7071C127.793 81.8593 127.711 81.7477 128.074 81.9946C128.214 82.0893 128.235 82.0791 128.382 82.14C128.567 82.2178 128.498 82.1772 128.533 82.2921C129.019 82.282 129.916 82.3496 130.34 82.5221C130.754 82.6912 130.977 83.337 131.025 83.8645C130.816 84.0032 130.867 83.922 130.717 84.1418C130.278 84.1587 130.193 83.9728 129.789 83.8882C129.847 87.8209 130.446 91.4729 129.484 95.3042C129.21 96.3964 128.471 98.449 127.256 98.848C126.93 98.9562 126.961 99.1523 126.759 99.4668C126.389 100.042 126.04 100.295 125.715 100.417C125.215 100.644 122.429 101.252 121.768 101.262C121.669 101.232 121.682 101.205 121.768 101.178C122.969 101.164 124.568 100.65 125.647 100.163C126.136 99.9165 126.533 99.4228 126.725 98.9088C126.338 98.689 126.105 98.618 125.986 98.0432C125.76 96.9442 126.711 95.9703 127.095 97.2249C127.252 97.7321 127.184 98.1311 127.136 98.6214C128.194 98.263 128.947 96.3998 129.262 95.0303C130.094 91.4188 129.693 87.5538 129.522 83.8814C128.711 84.064 128.817 84.4123 127.875 84.2061C127.995 84.4225 128.433 84.5544 128.673 84.737L128.159 84.7201L128.317 84.9027C128.618 85.1698 128.926 85.349 129.132 85.7176C128.909 85.4877 128.392 85.1292 127.944 85.0176C128.111 85.2239 128.337 85.2543 128.478 85.4944L127.978 85.4268C128.656 85.7447 129.361 86.2891 129.426 87.1209C129.248 86.8707 129.008 86.1707 128.081 86.1302C128.721 86.5461 129.169 86.7591 129.354 87.7127C129.132 87.3576 128.854 87.0026 128.478 86.8538C128.858 87.3238 129.258 87.7702 129.149 88.6899L128.827 88.132C128.998 88.6426 129.077 88.8658 129.015 89.4981C128.868 89.275 128.858 88.8489 128.704 88.6257C128.847 90.2657 128.594 89.5252 128.491 90.5126C128.42 91.1956 128.132 91.7401 127.735 91.9734C127.951 91.4594 128.214 91.1246 128.259 90.4517C128.207 90.5227 128.266 90.4179 128.183 90.5768C127.985 90.9691 127.831 91.385 127.523 91.6961L127.547 91.2261C127.42 91.385 127.399 91.6758 127.369 91.8888C127.341 92.0917 127.304 92.3352 127.238 92.528C127.122 92.8729 126.841 93.3023 126.564 93.4207C126.708 93.0724 126.917 92.6057 126.811 92.1458C126.574 92.8188 126.455 93.2414 125.876 93.4984L126.136 92.4299C125.89 92.5482 125.575 92.9168 125.701 93.3902C125.773 93.6574 126.153 93.9516 126.434 94.0564C125.845 94.0801 125.318 93.6675 125.065 93.4173C125.13 93.6608 125.383 93.9516 125.558 94.0632C125.171 93.9719 124.671 93.3429 124.623 93.0656C124.62 93.0453 124.609 93.0419 124.599 93.0284C124.613 93.5052 124.808 93.8873 125.037 94.1139C124.479 93.8467 124.007 93.3023 124.027 92.6226C123.825 93.0014 124.038 93.4984 124.137 93.8332C123.959 93.5255 123.702 93.6574 123.469 92.626C123.452 92.5482 123.452 92.5584 123.428 92.4908C123.425 92.4806 123.411 92.4705 123.408 92.4468C123.408 92.4231 123.394 92.4164 123.391 92.4028L123.284 92.8188C123.23 92.7444 123.284 92.8695 123.219 92.697C123.185 92.6023 123.209 92.6801 123.195 92.6091C123.182 92.5516 123.178 92.4265 123.178 92.3656C123.178 92.1966 123.192 92.0782 123.202 91.9159C122.846 92.4096 123.058 92.9101 123.219 93.4173C122.959 93.211 122.682 92.7883 122.453 92.484C122.483 93.0724 122.901 93.8298 122.631 94.3607L122.511 93.8129C122.394 95.48 122.271 94.7767 122.076 95.4259L122.107 94.7733C122.062 94.8409 122.093 94.7733 122.042 94.9051C121.963 95.1114 121.912 95.3617 121.785 95.5409C121.621 95.7708 121.508 95.8858 121.172 95.9872C121.152 96.9239 120.933 96.7582 120.679 97.3297C120.511 97.7118 120.457 98.4456 120.446 98.8919C120.436 99.3654 120.433 99.4364 120.436 99.4702L120.494 99.5141ZM118.978 99.9368C118.971 100.055 118.978 100.133 119.122 100.282C119.248 100.417 119.371 100.478 119.539 100.589L119.751 100.789C119.779 100.654 119.895 100.579 119.899 100.224C119.899 99.7847 119.638 99.9673 119.704 99.5141C119.751 99.2605 119.84 99.0137 119.882 98.733C119.977 98.0905 120.039 97.5968 119.919 96.978C119.786 97.0659 119.553 97.4514 119.426 97.6171C119.087 98.0635 118.988 98.8649 118.998 99.433C119.005 99.7982 118.988 99.8185 118.981 99.9334L118.978 99.9368ZM126.852 98.662C127.119 98.2123 127.009 97.1166 126.578 96.9611C126.126 97.3534 126.177 98.5673 126.852 98.662Z" fill="#131316"/>
<path fill-rule="evenodd" clip-rule="evenodd" d="M81.4399 82.4747C81.4399 82.4747 81.3988 82.3192 81.3954 82.3091C80.7997 80.7096 80.0431 81.3419 78.886 81.0917C78.4136 80.9903 78.5094 81.0376 78.263 80.7569C77.9275 80.3748 77.3763 80.4154 76.9073 80.226C76.7703 80.2159 76.8388 80.3173 76.6402 80.3782C76.5581 80.4053 76.2466 80.4492 76.0206 80.6589C75.8802 80.7908 76.1712 80.6521 75.9008 80.7739L76.1712 80.8212C76.0446 80.9125 75.4729 81.112 75.1374 81.3419L75.3941 81.4603C75.1716 81.6598 74.9593 81.9202 74.8019 82.1636C75.0244 82.1332 75.0312 82.0149 75.2572 81.9878C75.1682 82.0216 74.7676 82.4984 74.73 82.6269C74.6204 83.009 74.9696 82.4545 74.7368 82.9042C74.6478 83.08 74.5691 83.1815 74.5657 83.3945C74.7402 83.239 74.6478 83.2356 74.8464 83.1206C74.7094 83.4689 74.5965 83.665 74.5862 84.1114C74.6752 84.0133 74.8019 83.8307 74.8977 83.7394L74.8635 84.4394C74.9011 84.4259 74.9183 84.4124 74.9251 84.4022C74.932 84.409 74.9388 84.4123 74.9491 84.4225C74.8601 84.6964 74.8703 85.0514 74.9525 85.3118C75.086 85.1394 75.0004 85.0379 75.1956 84.8486C75.1853 85.1766 75.1031 85.6398 75.1956 85.7717L75.3873 85.4099L75.312 86.1775C75.3359 86.1673 75.3496 86.1268 75.3565 86.1369C75.3599 86.1471 75.377 86.1065 75.3839 86.0963L75.5242 85.8698C75.5105 86.5596 75.4626 86.5528 75.1956 86.9857C75.3085 86.9417 75.3565 86.8808 75.4694 86.9417C74.5657 87.3881 73.5866 87.0364 72.9566 86.5123C72.3439 86.0017 71.7447 85.5451 71.3442 84.7471C71.0361 84.1317 70.5466 83.0361 70.372 82.3564C70.1563 81.5144 70.1597 80.7197 68.6739 80.6284V80.7569C68.0475 80.8956 67.866 81.085 67.7599 81.7443C67.9584 81.8458 67.7428 81.7545 67.9002 82.4646C67.9174 82.4578 67.9276 82.4545 67.9379 82.4545C67.9447 82.4409 67.955 82.4206 67.9687 82.3936C67.9858 82.3665 68.0132 82.282 68.0372 82.238C68.1707 83.0327 68.513 83.5095 68.0783 84.3988C67.8284 84.9128 67.3114 85.4708 66.5206 85.4539C65.0383 85.4234 64.3638 83.6786 65.0143 82.2651L65.0417 82.6573C65.3293 82.2583 65.1341 82.069 65.295 81.7646C65.4833 81.4163 65.1581 80.8246 64.4255 80.7772C64.2646 80.5541 64.5145 80.8516 64.4255 80.6251C63.4738 80.6792 62.9671 81.0275 62.7206 81.7917C62.4159 82.7351 61.7141 82.539 61.6491 83.6177C61.6593 83.6042 61.673 83.5704 61.6765 83.5805C61.6799 83.5906 61.697 83.5534 61.7038 83.5433C61.8545 83.3269 61.875 83.2457 62.1523 83.1071C61.4916 83.9863 61.5977 85.1123 60.9404 86.0186C60.0024 87.3137 58.7563 87.2765 58.5406 89.8498C58.4927 90.4348 58.4927 91.1618 58.0476 91.4324C57.8285 91.5676 56.9829 91.7333 57.0959 92.511C57.1815 93.0927 57.986 93.2448 57.1096 93.7622C58.3215 93.7149 57.8799 92.7241 58.2975 91.9058C59.0986 90.33 58.6673 90.1372 59.0507 89.5556C59.126 89.6875 59.1363 90.029 59.1534 90.188C59.3314 91.8314 59.4683 93.2854 58.4276 94.7124C58.2085 95.0167 57.7943 95.2636 57.8388 95.7167C57.8901 96.2476 58.2222 96.535 58.3249 98.4016C58.39 99.5446 58.2667 99.1794 58.0955 99.7339C58.1401 100.106 58.3865 99.9673 58.4037 100.299C58.4105 100.414 58.3626 100.515 58.3523 100.654L58.2701 101.005C58.2701 101.005 58.253 101.039 58.2393 101.053C58.2462 101.063 58.2633 101.063 58.2667 101.076C58.3215 101.269 59.8518 101.3 60.177 101.154C60.0709 100.681 59.7046 100.569 59.3554 100.332C59.1192 100.177 59.0986 100.163 59.0781 99.8016C59.0644 99.5209 58.9754 99.3992 58.9274 99.105C58.6673 98.6857 58.859 96.8056 59.037 96.3186C59.2972 95.6085 59.7765 94.939 60.1017 94.2694C60.1633 95.1723 59.6943 96.1631 59.7867 96.3423C60.153 96.6602 60.4783 96.8867 60.7795 97.3026C60.9438 97.5258 61.4505 98.3306 61.5224 98.5707C61.6867 98.7262 61.9127 99.2098 61.9709 99.4837C62.1557 100.37 62.0873 99.8218 62.5015 100.299C62.5255 100.654 62.3646 100.735 62.481 101.08C62.6761 101.266 63.0561 101.245 63.4053 101.249C63.5936 101.249 63.7853 101.245 63.9701 101.235C64.1961 101.222 64.3296 101.235 64.4049 101.09C64.2338 100.545 63.6586 100.403 63.2375 100.072C62.9568 99.8489 62.522 99.1185 62.3372 98.7026C62.1078 98.4152 61.5874 97.2925 61.4471 96.8664C61.1801 96.0582 61.1801 95.2568 61.2485 94.3743C61.3273 93.3801 61.6148 93.0622 61.8613 92.2338C62.0359 91.6589 62.2208 90.4889 62.3064 89.8735C62.991 90.2894 63.1862 90.8744 65.004 91.8449C66.3974 92.5922 67.2874 92.4772 68.8793 92.1797C68.8109 93.4342 68.9547 94.3675 68.6397 95.5781C68.5302 95.9906 68.7664 96.65 68.7664 97.1707C68.7664 97.7321 68.6911 98.3002 68.6397 98.8277C68.5781 98.99 68.4959 99.1828 68.448 99.3552C68.335 99.7542 68.4309 99.6663 68.5165 99.9605C68.6911 100.576 68.1467 100.478 68.4377 101.144C68.9752 101.344 69.6702 101.33 70.2966 101.245C70.3035 100.901 69.7386 100.573 69.4956 100.387C69.3107 100.248 69.2251 100.065 69.2559 99.8185C69.3073 99.3958 69.3141 99.5141 69.232 99.0678C69.1121 98.6789 69.1943 97.9012 69.2628 97.4717C69.3655 96.8461 69.5195 96.7109 69.7557 96.2273C70.0056 95.7235 69.6599 94.9423 70.4678 93.4376C70.5808 93.8772 70.6527 94.2897 70.7348 94.7395C70.8375 95.2873 70.7109 95.808 70.8649 96.2375C71.1936 97.1606 71.399 97.8471 71.31 98.9359C71.0361 99.8962 71.4435 99.504 71.4401 100.075C71.4401 100.718 71.0772 100.458 71.3956 101.114C71.8235 101.347 72.6588 101.279 73.1997 101.185L73.1552 100.873L72.7375 100.481C72.5561 100.356 72.4226 100.292 72.2857 100.146C72.0563 99.8996 72.1521 99.832 72.1316 99.5209C72.1179 99.2808 72.0186 99.0813 71.9262 98.8683C71.4093 97.049 71.9878 95.994 71.9707 95.6085C71.9502 95.2129 71.8372 94.9694 71.8509 94.4892L72.1076 91.686C72.1693 91.4662 72.2411 91.5 72.4123 91.358C72.6588 91.1551 72.8676 90.9082 73.0902 90.729C72.9943 91.0401 72.8574 91.1449 72.7204 91.4188C73.0217 91.314 73.0525 91.1821 73.2682 91.057C73.2408 91.1855 73.1929 91.3444 73.1381 91.456C73.0217 91.686 73.0354 91.5575 72.9156 91.7434L73.1449 91.7299C73.0525 92.0681 72.9053 92.156 72.5184 92.1458C73.0765 92.6531 73.4154 92.2371 73.7714 91.9125C73.7988 92.3284 73.7543 92.4231 73.5592 92.6362C73.8296 92.6294 73.9392 92.5956 74.1309 92.4333L74.302 92.2845C74.2747 92.6159 74.2199 92.7241 74.1035 92.9912C74.5177 92.9574 74.7779 92.7342 74.9936 92.4434L75.1956 92.1458C75.3393 92.5077 75.2538 92.8729 75.1305 93.1502C75.579 93.0115 75.7775 92.6565 75.959 92.3826C76.0651 92.2236 75.9419 92.3217 76.0925 92.2304C76.137 92.67 76.1336 92.7647 75.959 93.0724C76.3458 93.0014 76.6471 92.5415 76.7669 92.2304C76.7977 92.1458 76.808 92.0985 76.8354 92.0173L76.9518 91.7773L76.9826 92.3318C77.0031 92.2811 77.479 91.1855 77.5201 91.1179L77.4311 91.9125C77.9617 91.3681 78.0781 90.9184 78.0712 89.9343L78.2013 90.188C78.2219 90.2623 78.2493 90.4382 78.2561 90.5193C78.2801 90.7527 78.2698 90.9623 78.2253 91.1686C79.0264 90.171 78.6087 89.6807 78.6875 89.2513C78.8518 89.5522 78.8312 89.8228 78.8518 90.215C79.0435 89.5319 79.2968 89.9343 79.0572 88.6798L79.2421 88.8252L79.0469 88.0576C79.1975 88.1421 79.1325 88.1354 79.2729 88.2402L79.0709 87.6045C79.153 87.5639 79.0606 87.6146 79.2694 87.6823C79.2352 86.9586 78.91 86.12 78.9648 85.8495C78.9921 85.7142 79.0367 85.8326 78.9819 85.6601C78.9237 85.4741 78.7388 85.2205 78.6532 85.0886L78.7936 85.0616L78.5163 84.4631C78.6977 84.365 78.4307 84.6017 78.6875 84.4732C78.6669 84.4293 78.2219 83.6887 78.3109 83.4655C78.3862 83.2829 80.05 82.7487 80.2383 82.7216L80.6867 82.9313C80.6867 82.8907 80.6936 82.8501 80.697 82.8129L81.1934 82.8501C81.2071 82.8163 81.2721 82.7013 81.2721 82.7013L81.392 82.5999C81.4399 82.5458 81.4502 82.5965 81.4536 82.5999C81.4536 82.5999 81.4536 82.5728 81.4536 82.4781L81.4399 82.4747ZM67.9345 82.4375C67.9002 82.5221 68.0064 82.4274 67.9345 82.4375V82.4375Z" fill="#131316"/>
</g>
<defs>
<clipPath id="clip0_17_1166">
<rect width="200" height="128" fill="white"/>
</clipPath>
</defs>
</svg>
