<svg width="19" height="18" viewBox="0 0 19 18" fill="none" xmlns="http://www.w3.org/2000/svg">
<path d="M4.16667 8.16669H10.8333V9.83335H4.16667V12.3334L0 9.00002L4.16667 5.66669V8.16669ZM3.33273 14H5.59029C6.76552 15.0373 8.30926 15.6667 10 15.6667C13.6819 15.6667 16.6667 12.6819 16.6667 9.00002C16.6667 5.31812 13.6819 2.33335 10 2.33335C8.30926 2.33335 6.76552 2.96275 5.59029 4.00002H3.33273C4.85307 1.97595 7.27363 0.666687 10 0.666687C14.6023 0.666687 18.3333 4.39765 18.3333 9.00002C18.3333 13.6024 14.6023 17.3334 10 17.3334C7.27363 17.3334 4.85307 16.0241 3.33273 14Z" fill="#70707B"/>
</svg>
