<svg width="17" height="18" viewBox="0 0 17 18" fill="none" xmlns="http://www.w3.org/2000/svg">
<path d="M0.369045 5.71206L8.0746 1.0906C8.33852 0.93231 8.66827 0.932369 8.9321 1.09075L16.6311 5.71204C16.7566 5.78735 16.8334 5.92296 16.8334 6.06929V16.6668C16.8334 17.127 16.4603 17.5001 16 17.5001H1.00002C0.539787 17.5001 0.166687 17.127 0.166687 16.6668V6.06939C0.166687 5.923 0.243504 5.78736 0.369045 5.71206ZM1.83335 6.77728V15.8334H15.1667V6.77689L8.5031 2.77708L1.83335 6.77728ZM8.54977 11.4154L12.963 7.6962L14.037 8.97069L8.56169 13.5849L2.97003 8.97652L4.03001 7.69035L8.54977 11.4154Z" fill="white"/>
</svg>
