<svg width="18" height="18" viewBox="0 0 18 18" fill="none" xmlns="http://www.w3.org/2000/svg">
<path d="M8.99935 17.3333C4.39697 17.3333 0.666016 13.6023 0.666016 8.99999C0.666016 4.39761 4.39697 0.666656 8.99935 0.666656C13.6017 0.666656 17.3327 4.39761 17.3327 8.99999C17.3327 13.6023 13.6017 17.3333 8.99935 17.3333ZM8.99935 15.6667C12.6813 15.6667 15.666 12.6819 15.666 8.99999C15.666 5.31809 12.6813 2.33332 8.99935 2.33332C5.31745 2.33332 2.33268 5.31809 2.33268 8.99999C2.33268 12.6819 5.31745 15.6667 8.99935 15.6667ZM4.83268 8.99999H6.49935C6.49935 10.3807 7.6186 11.5 8.99935 11.5C10.3801 11.5 11.4993 10.3807 11.4993 8.99999H13.166C13.166 11.3012 11.3005 13.1667 8.99935 13.1667C6.69817 13.1667 4.83268 11.3012 4.83268 8.99999Z" fill="white"/>
</svg>
