<svg width="15" height="18" viewBox="0 0 15 18" fill="none" xmlns="http://www.w3.org/2000/svg">
<path d="M2.49998 2.33341V15.6667H12.5V2.33341H2.49998ZM1.66665 0.666748H13.3333C13.7936 0.666748 14.1666 1.03985 14.1666 1.50008V16.5001C14.1666 16.9603 13.7936 17.3334 13.3333 17.3334H1.66665C1.20641 17.3334 0.833313 16.9603 0.833313 16.5001V1.50008C0.833313 1.03985 1.20641 0.666748 1.66665 0.666748ZM7.49998 13.1667C7.96023 13.1667 8.33331 13.5398 8.33331 14.0001C8.33331 14.4603 7.96023 14.8334 7.49998 14.8334C7.03973 14.8334 6.66665 14.4603 6.66665 14.0001C6.66665 13.5398 7.03973 13.1667 7.49998 13.1667Z" fill="white"/>
</svg>
