<svg width="16" height="20" viewBox="0 0 16 20" fill="none" xmlns="http://www.w3.org/2000/svg">
<path d="M8.00065 0.833344L15.9173 5.41668V14.5833L8.00065 19.1667L0.0839844 14.5833V5.41668L8.00065 0.833344ZM8.00065 2.75918L1.75065 6.3776V13.6224L8.00065 17.2408L14.2507 13.6224V6.3776L8.00065 2.75918ZM8.00065 13.3333C6.1597 13.3333 4.66732 11.8409 4.66732 10C4.66732 8.15906 6.1597 6.66668 8.00065 6.66668C9.84157 6.66668 11.334 8.15906 11.334 10C11.334 11.8409 9.84157 13.3333 8.00065 13.3333ZM8.00065 11.6667C8.92115 11.6667 9.66732 10.9205 9.66732 10C9.66732 9.07951 8.92115 8.33334 8.00065 8.33334C7.08015 8.33334 6.33398 9.07951 6.33398 10C6.33398 10.9205 7.08015 11.6667 8.00065 11.6667Z" fill="#70707B"/>
</svg>
