<svg width="21" height="20" viewBox="0 0 21 20" fill="none" xmlns="http://www.w3.org/2000/svg">
<path d="M11.0081 2C10.787 2.62556 10.6667 3.29873 10.6667 4H2.66675V18H16.6667V10C17.368 10 18.0411 9.8797 18.6667 9.6586V19C18.6667 19.5523 18.219 20 17.6667 20H1.66675C1.11447 20 0.666748 19.5523 0.666748 19V3C0.666748 2.44772 1.11447 2 1.66675 2H11.0081ZM16.6667 6C17.7713 6 18.6667 5.10457 18.6667 4C18.6667 2.89543 17.7713 2 16.6667 2C15.5621 2 14.6667 2.89543 14.6667 4C14.6667 5.10457 15.5621 6 16.6667 6ZM16.6667 8C14.4576 8 12.6667 6.20914 12.6667 4C12.6667 1.79086 14.4576 0 16.6667 0C18.8758 0 20.6667 1.79086 20.6667 4C20.6667 6.20914 18.8758 8 16.6667 8Z" fill="white"/>
</svg>
