<svg width="22" height="20" viewBox="0 0 22 20" fill="none" xmlns="http://www.w3.org/2000/svg">
<path d="M9.3335 9V6L14.3335 10L9.3335 14V11H0.333496V9H9.3335ZM1.7913 13H3.91502C5.10179 15.9318 7.97612 18 11.3335 18C15.7518 18 19.3335 14.4183 19.3335 10C19.3335 5.58172 15.7518 2 11.3335 2C7.97612 2 5.10179 4.06817 3.91502 7H1.7913C3.06557 2.94289 6.85586 0 11.3335 0C16.8563 0 21.3335 4.47715 21.3335 10C21.3335 15.5228 16.8563 20 11.3335 20C6.85586 20 3.06557 17.0571 1.7913 13Z" fill="white"/>
</svg>
