<svg width="22" height="20" viewBox="0 0 22 20" fill="none" xmlns="http://www.w3.org/2000/svg">
<path d="M2.27246 2.46875C4.69641 0.0447998 8.55849 -0.0645001 11.1121 2.14085C13.6641 -0.0645001 17.5262 0.0447998 19.9501 2.46875C22.3697 4.88836 22.4829 8.741 20.2898 11.2947L12.5255 19.0858C11.7799 19.8313 10.5922 19.8652 9.80653 19.1874L9.69713 19.0858L1.93274 11.2947C-0.26039 8.741 -0.14715 4.88836 2.27246 2.46875ZM3.68667 3.88296C1.97952 5.59011 1.93075 8.3276 3.54035 10.0937L3.68667 10.2469L11.1113 17.6715L16.4139 12.3675L12.879 8.8327L11.8184 9.8934C10.6468 11.0649 8.74733 11.0649 7.57576 9.8934C6.40419 8.7218 6.40419 6.8223 7.57576 5.65073L9.67693 3.54823C7.96425 2.17713 5.48209 2.23993 3.83993 3.73663L3.68667 3.88296ZM12.1719 6.71139C12.5624 6.32086 13.1956 6.32086 13.5861 6.71139L17.8281 10.9533L18.5359 10.2469C20.2932 8.4896 20.2932 5.64032 18.5359 3.88296C16.8287 2.17581 14.0912 2.12704 12.3252 3.73663L12.1719 3.88296L8.98997 7.06494C8.62734 7.42757 8.60144 7.99942 8.91227 8.3919L8.98997 8.4792C9.35263 8.8418 9.92443 8.8677 10.3169 8.5569L10.4042 8.4792L12.1719 6.71139Z" fill="white"/>
</svg>
