<svg width="1920" height="348" viewBox="0 0 1920 348" fill="none" xmlns="http://www.w3.org/2000/svg">
<g clip-path="url(#clip0_42_1905)">
<rect width="1920" height="348" fill="#131316"/>
<mask id="mask0_42_1905" style="mask-type:luminance" maskUnits="userSpaceOnUse" x="-108" y="-351" width="1906" height="953">
<path d="M1797.19 -350.516H-107.108V601.453H1797.19V-350.516Z" fill="white"/>
</mask>
<g mask="url(#mask0_42_1905)">
<path d="M-191.936 -54.6823C-155.849 -113.485 -96.1349 -188.801 -10.2414 -202.319C159.465 -229.155 261.802 15.059 434.237 -10.1444C568.142 -29.8645 575.512 -185.802 707.461 -199.967C864.585 -216.836 935.953 -1.15306 1079.07 -18.3076C1243.25 -38.0562 1260.4 -336.599 1405.87 -348.432C1564.12 -361.593 1660.29 -16.0181 1827.4 -30.8783C1904.16 -37.8134 1959.47 -118.745 1993.34 -182.856" stroke="#1A1A1E" stroke-miterlimit="10"/>
<path d="M-194.016 -12.9861C-157.849 -71.913 -98.1346 -147.109 -12.2839 -160.66C159.013 -187.825 262.297 60.9962 437.203 36.1736C572.808 16.7724 581.315 -141.283 715.054 -154.706C872.64 -170.518 943.171 44.2177 1085.64 26.9919C1249.4 7.11473 1266.06 -291.39 1411.25 -303.546C1569.84 -317.131 1667.33 31.0901 1834.46 15.9157C1911.54 8.7997 1966.81 -73.5885 2000.58 -138.76" stroke="#1A1A1E" stroke-miterlimit="10"/>
<path d="M-196.097 28.7102C-159.844 -30.3405 -100.129 -105.422 -14.3312 -118.997C158.556 -146.49 262.792 106.938 440.168 82.4917C577.473 63.4047 587.114 -96.7784 722.648 -109.444C880.69 -124.214 950.388 89.5887 1092.21 72.2867C1255.55 52.281 1271.72 -246.19 1416.62 -258.661C1575.54 -272.669 1674.36 78.1983 1841.5 62.7098C1918.91 55.4082 1974.14 -28.4318 2007.82 -94.6698" stroke="#1A1A1E" stroke-miterlimit="10"/>
<path d="M-198.182 70.4066C-161.843 11.2321 -102.133 -63.7355 -16.378 -77.3344C158.099 -105.156 263.288 152.881 443.13 128.81C582.134 110.037 592.908 -52.2833 730.236 -64.1829C888.741 -77.9198 957.6 134.955 1098.77 117.586C1261.7 97.452 1277.38 -200.981 1421.99 -213.771C1581.24 -228.198 1681.39 125.311 1848.54 109.509C1926.27 102.026 1981.47 16.725 2015.05 -50.5745" stroke="#1A1A1E" stroke-miterlimit="10"/>
<path d="M-200.262 112.103C-163.842 52.8094 -104.128 -22.044 -18.4253 -35.6714C157.637 -63.8212 263.778 198.827 446.096 175.133C586.8 156.674 598.706 -7.78824 737.83 -18.9168C896.791 -31.6303 964.818 180.331 1105.34 162.886C1267.85 142.623 1283.04 -155.772 1427.36 -168.881C1586.95 -183.731 1688.41 172.424 1855.58 156.308C1933.64 148.644 1988.8 61.8864 2022.29 -6.47452" stroke="#1A1A1E" stroke-miterlimit="10"/>
<path d="M-202.343 153.799C-165.837 94.3819 -106.128 19.6427 -20.4678 5.99149C157.184 -22.4867 264.278 244.769 449.066 221.451C591.47 203.306 604.509 36.6878 745.428 26.3446C904.841 14.6449 972.035 225.701 1111.91 208.185C1274.01 187.794 1288.71 -110.568 1432.74 -123.99C1592.66 -139.265 1695.45 219.537 1862.62 203.106C1941.01 195.262 1996.13 107.048 2029.52 37.6207" stroke="#1A1A1E" stroke-miterlimit="10"/>
<path d="M-204.423 195.495C-167.832 135.955 -108.122 61.3344 -22.5145 47.6546C156.728 18.848 264.768 290.711 452.028 267.769C596.131 249.943 610.299 81.1591 753.012 71.6061C912.883 60.906 979.243 271.072 1118.47 253.48C1280.16 232.96 1294.36 -65.3633 1438.1 -79.105C1598.35 -94.803 1702.47 266.646 1869.66 249.901C1948.37 241.871 2003.45 152.205 2036.74 81.7113" stroke="#1A1A1E" stroke-miterlimit="10"/>
<path d="M-206.503 237.192C-169.831 177.527 -110.122 103.021 -24.557 89.3125C156.275 60.1775 265.268 336.649 454.998 314.087C600.801 296.575 616.097 125.621 760.61 116.867C920.933 107.162 986.465 316.438 1125.04 298.779C1286.32 278.131 1300.02 -20.1544 1443.48 -34.215C1604.07 -50.3318 1709.5 313.763 1876.71 296.699C1955.75 288.488 2010.79 197.366 2043.99 125.811" stroke="#1A1A1E" stroke-miterlimit="10"/>
<path d="M-208.584 278.888C-171.826 219.099 -112.117 144.712 -26.5995 130.976C155.823 101.512 265.763 382.591 457.969 360.405C605.471 343.208 621.901 170.073 768.208 162.129C928.988 153.404 993.687 361.809 1131.61 344.079C1292.48 323.302 1305.69 25.0499 1448.86 10.6752C1609.78 -5.86532 1716.54 360.876 1883.76 343.498C1963.13 335.107 2018.13 242.527 2051.23 169.906" stroke="#1A1A1E" stroke-miterlimit="10"/>
<path d="M-210.665 320.584C-173.826 260.672 -114.116 186.399 -28.6467 172.639C155.366 142.847 266.258 428.533 460.93 406.723C610.132 389.84 627.69 214.516 775.797 207.395C937.029 199.641 1000.9 407.185 1138.17 389.378C1298.62 368.473 1311.34 70.2591 1454.23 55.5654C1615.47 38.6013 1723.57 407.989 1890.79 390.297C1970.49 381.724 2025.46 287.684 2058.46 214.002" stroke="#1A1A1E" stroke-miterlimit="10"/>
<path d="M-212.745 362.281C-175.82 302.245 -116.111 228.091 -30.6887 214.302C154.909 184.186 266.758 474.475 463.901 453.046C614.803 436.482 633.489 258.954 783.395 252.661C945.08 245.874 1008.12 452.561 1144.75 434.683C1304.78 413.649 1317.01 115.473 1459.61 100.456C1621.19 83.0678 1730.6 455.102 1897.84 437.096C1977.87 428.338 2032.79 332.846 2065.7 258.102" stroke="#1A1A1E" stroke-miterlimit="10"/>
<path d="M-214.825 403.977C-177.815 343.817 -118.106 269.778 -32.736 255.965C154.452 225.521 267.249 520.417 466.867 499.364C619.468 483.114 639.282 303.378 790.989 297.923C953.13 292.087 1015.34 497.932 1151.31 479.977C1310.93 458.815 1322.67 160.672 1464.98 145.341C1626.89 127.534 1737.63 502.211 1904.89 483.89C1985.24 474.951 2040.12 378.002 2072.94 302.192" stroke="#1A1A1E" stroke-miterlimit="10"/>
<path d="M-216.906 445.673C-179.815 385.394 -120.105 311.464 -34.7784 297.623C154 266.85 267.748 566.354 469.833 545.677C624.133 529.741 645.076 347.791 798.582 343.179C961.176 338.291 1022.55 543.293 1157.88 525.272C1317.09 503.981 1328.33 205.877 1470.35 190.226C1632.6 171.996 1744.66 549.319 1911.93 530.684C1992.61 521.564 2047.46 423.159 2080.17 346.283" stroke="#1A1A1E" stroke-miterlimit="10"/>
<path d="M-218.986 487.374C-181.81 426.972 -122.1 353.161 -36.8257 339.29C153.543 308.19 268.239 612.301 472.799 592.005C628.794 576.383 650.875 392.21 806.175 388.45C969.226 384.499 1029.77 588.673 1164.45 570.576C1323.24 549.157 1333.99 251.09 1475.73 235.121C1638.31 216.467 1751.69 596.436 1918.98 577.487C1999.99 568.187 2054.79 468.325 2087.41 390.387" stroke="#1A1A1E" stroke-miterlimit="10"/>
<path d="M-221.071 529.07C-183.809 468.544 -124.104 394.847 -38.8726 380.953C153.086 349.524 268.734 658.243 475.765 638.323C633.46 623.02 656.669 436.61 813.769 433.711C977.272 430.694 1036.99 634.044 1171.02 615.876C1329.4 594.328 1339.66 296.295 1481.1 280.011C1644.02 260.938 1758.73 643.549 1926.02 624.286C2007.36 614.8 2062.13 513.487 2094.65 434.483" stroke="#1A1A1E" stroke-miterlimit="10"/>
<path d="M-223.152 570.767C-185.809 510.117 -126.099 436.539 -40.915 422.617C152.629 390.859 269.229 704.185 478.731 684.641C638.125 669.653 662.467 481.001 821.362 478.973C985.322 476.879 1044.2 679.415 1177.58 661.175C1335.55 639.499 1345.32 341.504 1486.47 324.902C1649.72 305.405 1765.75 690.663 1933.06 671.085C2014.73 661.418 2069.45 558.648 2101.88 478.583" stroke="#1A1A1E" stroke-miterlimit="10"/>
</g>
</g>
<defs>
<clipPath id="clip0_42_1905">
<rect width="1920" height="348" fill="white"/>
</clipPath>
</defs>
</svg>
