<svg width="21" height="20" viewBox="0 0 21 20" fill="none" xmlns="http://www.w3.org/2000/svg">
<path d="M2.44458 10C2.44458 5.58172 6.0263 2 10.4446 2C14.8629 2 18.4446 5.58172 18.4446 10C18.4446 14.4183 14.8629 18 10.4446 18C6.0263 18 2.44458 14.4183 2.44458 10ZM10.4446 0C4.92173 0 0.44458 4.47715 0.44458 10C0.44458 15.5228 4.92173 20 10.4446 20C15.9674 20 20.4446 15.5228 20.4446 10C20.4446 4.47715 15.9674 0 10.4446 0ZM15.9017 7.45711L14.4875 6.04289L9.44458 11.0858L6.65169 8.2929L5.23747 9.7071L9.44458 13.9142L15.9017 7.45711Z" fill="white"/>
</svg>
