<svg width="20" height="21" viewBox="0 0 20 21" fill="none" xmlns="http://www.w3.org/2000/svg">
<path d="M10.7778 13.252V15.3414C10.1522 15.1203 9.47913 15 8.77783 15C5.46412 15 2.77783 17.6863 2.77783 21H0.777832C0.777832 16.5817 4.35955 13 8.77783 13C9.46843 13 10.1386 13.0875 10.7778 13.252ZM8.77783 12C5.46283 12 2.77783 9.315 2.77783 6C2.77783 2.685 5.46283 0 8.77783 0C12.0928 0 14.7778 2.685 14.7778 6C14.7778 9.315 12.0928 12 8.77783 12ZM8.77783 10C10.9878 10 12.7778 8.21 12.7778 6C12.7778 3.79 10.9878 2 8.77783 2C6.56783 2 4.77783 3.79 4.77783 6C4.77783 8.21 6.56783 10 8.77783 10ZM14.7778 16V13H16.7778V16H19.7778V18H16.7778V21H14.7778V18H11.7778V16H14.7778Z" fill="white"/>
</svg>
