<svg width="16" height="19" viewBox="0 0 16 19" fill="none" xmlns="http://www.w3.org/2000/svg">
<path d="M12.6814 4.9734L13.8926 3.76225L15.0711 4.94075L13.8599 6.1519C14.8863 7.43497 15.5 9.06248 15.5 10.8333C15.5 14.9755 12.1422 18.3333 8 18.3333C3.85787 18.3333 0.5 14.9755 0.5 10.8333C0.5 6.69118 3.85787 3.33331 8 3.33331C9.77083 3.33331 11.3983 3.94704 12.6814 4.9734ZM8 16.6666C11.2217 16.6666 13.8333 14.055 13.8333 10.8333C13.8333 7.61165 11.2217 4.99998 8 4.99998C4.77834 4.99998 2.16667 7.61165 2.16667 10.8333C2.16667 14.055 4.77834 16.6666 8 16.6666ZM7.16667 6.66665H8.83333V11.6666H7.16667V6.66665ZM4.66667 0.833313H11.3333V2.49998H4.66667V0.833313Z" fill="#51525C"/>
</svg>
