<svg width="208" height="108" viewBox="0 0 208 108" fill="none" xmlns="http://www.w3.org/2000/svg">
<path d="M16.545 104.185H191.459C191.726 102.372 191.939 100.523 192.092 98.6418C192.288 96.2705 192.388 93.8604 192.388 91.415C192.388 67.2256 182.494 45.3229 166.5 29.4719C150.507 13.6173 128.408 3.81455 104.002 3.81455C79.5955 3.81455 57.4963 13.6173 41.5032 29.4719C25.51 45.3229 15.6158 67.2256 15.6158 91.415C15.6158 93.8604 15.7154 96.2705 15.9113 98.6418C16.0679 100.519 16.278 102.368 16.545 104.185ZM0 104.185H12.6678C12.4185 102.442 12.2227 100.692 12.0768 98.9418C11.8703 96.447 11.767 93.9345 11.767 91.415C11.767 66.1706 22.0921 43.3186 38.783 26.7759C55.474 10.2333 78.5309 0 103.998 0C129.465 0 152.526 10.2333 169.217 26.7759C185.908 43.3186 196.233 66.1706 196.233 91.415C196.233 93.9345 196.126 96.447 195.923 98.9418C195.777 100.692 195.581 102.442 195.332 104.185H208V108H0V104.185Z" fill="#131316"/>
<mask id="mask0_42_1947" style="mask-type:luminance" maskUnits="userSpaceOnUse" x="15" y="3" width="178" height="102">
<path d="M15.9078 98.6419C16.0645 100.519 16.2745 102.368 16.5416 104.185H191.455C191.722 102.368 191.936 100.523 192.089 98.6419C192.285 96.2706 192.384 93.8605 192.384 91.415C192.384 67.2257 182.49 45.3229 166.497 29.4684C150.504 13.6173 128.405 3.81104 103.998 3.81104C79.592 3.81104 57.4929 13.6138 41.4997 29.4684C25.5066 45.3229 15.6123 67.2221 15.6123 91.415C15.6123 93.8605 15.712 96.2706 15.9078 98.6419Z" fill="white"/>
</mask>
<g mask="url(#mask0_42_1947)">
<path d="M15.6135 2.95918L15.1201 104.183L192.381 105.051L192.875 3.8277L15.6135 2.95918Z" fill="white"/>
</g>
<path fill-rule="evenodd" clip-rule="evenodd" d="M95.9945 38.7064L95.1258 6.55981L100.167 33.6074L95.9945 38.7064ZM54.826 77.2013L23.2349 64.2579L56.4958 72.194L26.4214 56.0325L58.6641 67.3702L30.4589 48.1811L61.3272 62.797L35.2974 40.7919L64.4568 58.5273L40.8908 33.9462L68.0207 54.6033L47.1784 27.7145L71.9799 51.0711L54.0855 22.1709L76.2879 47.9693L61.5409 17.3753L80.9021 45.3299L69.4627 13.3738L85.7691 43.1844L77.7619 10.2191L90.8355 41.5541L86.3495 7.93954L95.6527 39.1299L77.7904 60.9621L68.5192 56.3677L54.8367 77.2013H54.826ZM51.8033 81.8062L20.9349 72.7657L54.8225 77.2083L51.8033 81.8062ZM48.5384 86.7747L19.5428 81.4675L51.465 82.3144L48.5349 86.7747H48.5384ZM44.9318 92.2654L19.0764 90.2646L47.6982 88.0521L44.9282 92.2654H44.9318ZM40.8409 98.4971L28.8461 98.8147L28.3298 98.6453L28.1981 98.8323L19.5464 99.0617L43.3296 94.7072L40.8409 98.4935V98.4971ZM173.988 96.4151L188.454 99.0652L176.626 98.7511L173.988 96.4187V96.4151ZM165.735 88.472L188.92 90.2646L168.793 91.8207L166.807 90.0634L165.735 88.4685V88.472ZM161.505 82.1838L188.454 81.4675L164.029 85.9384L161.505 82.1838ZM157.756 76.6084L187.065 72.7657L160.423 80.5712L157.756 76.6084ZM154.331 71.5165L184.765 64.2544L157.08 75.5992L154.331 71.513V71.5165ZM151.12 66.7421L181.579 56.0325L153.914 70.899L151.12 66.7457V66.7421ZM106.822 39.0417L112.874 6.55981L111.956 40.4567L121.654 7.93954L117.168 41.5541L130.238 10.2191L122.231 43.1844L138.537 13.3738L127.098 45.3299L146.459 17.3753L131.712 47.9693L153.914 22.1709L136.02 51.0711L160.822 27.7145L139.979 54.6033L167.109 33.9462L143.543 58.5273L172.703 40.7919L146.673 62.797L177.541 48.1811L150.849 66.3399L150.116 65.2495L141.151 70.1509L130.024 53.6082L117.043 50.2383L106.825 39.0417H106.822ZM103.998 6.10107L106.572 38.77L101.833 33.5792L103.998 6.10107Z" fill="#51525C"/>
<path fill-rule="evenodd" clip-rule="evenodd" d="M100.979 41.5083L83.9784 62.1866L89.853 64.9461L81.5075 74.3642L99.7472 59.2754L95.4214 58.2027L108.559 49.6244L100.983 41.5083H100.979ZM107.626 65.8565C107.626 65.8565 113.497 56.8194 114.427 56.6677C115.352 56.5159 126.019 56.6677 126.019 56.6677C126.019 56.6677 150.903 92.3572 149.048 91.5914C147.193 90.8257 131.431 86.383 131.431 85.1586C131.431 83.9341 131.584 72.7516 131.584 72.7516L104.073 91.8984L123.701 70.6061L121.537 62.0278L107.626 65.8565ZM147.502 74.4383L151.056 72.1411L164.966 93.5851L147.502 74.4383ZM50.7495 93.2782C50.7495 92.5124 69.9114 62.6418 69.9114 62.6418L80.7313 66.9327L69.2955 82.0992L70.9937 70.6097L50.7495 93.2782Z" fill="#51525C"/>
<path fill-rule="evenodd" clip-rule="evenodd" d="M68.9287 103.307L69.1744 106.091H21.2483C21.1593 105.629 21.0775 105.163 20.9956 104.697C22.3912 104.168 23.8652 103.469 24.3815 102.785L21.8643 103.007L22.6405 102.195C21.5723 102.633 21.3979 102.894 20.6894 102.859C20.6217 102.414 20.5541 101.97 20.49 101.521C20.9706 101.101 21.4798 100.696 21.8643 100.353C22.701 99.5983 23.47 98.956 24.1216 98.1444L22.6903 99.1466L22.6226 98.8643L22.377 98.0633L24.5666 95.0427C23.0606 94.8945 23.8545 95.3426 22.5194 95.3003L26.6494 89.4003C26.2791 89.4885 25.7166 89.8519 25.2573 89.6085C25.0864 88.9239 25.5884 88.4616 26.0406 87.7912C26.4144 87.2336 26.8986 86.5526 27.1835 85.9739C27.9632 86.6761 28.7215 88.3699 29.3161 89.3509C29.2271 89.4144 29.1773 89.3791 29.0206 89.3756C27.5003 89.3473 28.5934 89.2485 28.2195 89.6085C29.0633 90.5965 29.8466 92.1844 30.7189 93.2924L29.601 93.5641C28.8675 93.6488 29.4123 93.6841 27.4505 92.4385C27.9596 93.5924 29.9499 94.0582 32.0434 96.7859C32.9335 95.8931 34.1511 94.9615 34.97 94.2275C36.1805 93.1407 37.2878 92.2162 38.2242 91.0446L36.1663 92.4879L36.0666 92.0786L35.7105 90.9247L38.8686 86.5667C36.7003 86.355 37.8432 87.0007 35.917 86.9407L41.87 78.433C41.3359 78.5565 40.5277 79.0823 39.8619 78.7329C39.6163 77.7484 40.3461 77.078 40.9941 76.1111C41.5353 75.303 42.2331 74.3256 42.6461 73.4893C43.7676 74.502 44.8607 76.9439 45.7187 78.3589C45.5906 78.4542 45.5193 78.4012 45.295 78.3942C43.0983 78.3554 44.6791 78.2142 44.1379 78.7329C45.352 80.1585 46.4842 82.4452 47.741 84.0437L46.1246 84.4389C45.0707 84.5589 45.8611 84.6083 43.0271 82.8121C43.8638 84.7176 47.4989 85.3211 50.9596 90.9917L50.0552 90.6141L44.9497 89.8978C45.9537 93.1372 49.6743 95.6108 51.8461 97.8198C49.8701 98.7867 51.1162 96.7329 47.9083 97.4457C48.5813 98.7937 47.8549 98.0597 48.7059 99.1289L51.3797 101.225L51.2943 100.95L53.0922 98.4691C51.8568 98.3491 52.5083 98.7161 51.4117 98.6808L54.8012 93.8359C54.4986 93.9064 54.0393 94.2064 53.6583 94.0088C53.5195 93.4442 53.9325 93.0666 54.2992 92.5126C54.609 92.0539 55.0077 91.4963 55.2427 91.0235C55.88 91.5987 56.5031 92.989 56.9944 93.7935C56.9196 93.8464 56.8805 93.8182 56.7523 93.8147C55.499 93.7935 56.3998 93.7124 56.0936 94.0088C56.7843 94.8168 57.4288 96.1225 58.1444 97.0294L57.2223 97.2552C56.6241 97.3258 57.0727 97.3505 55.4599 96.3271C55.9049 97.3399 57.735 97.7104 59.5757 100.375L59.4368 99.9123L61.3736 97.2411C60.0421 97.107 60.7435 97.5057 59.5614 97.4704L63.2144 92.2444C62.8868 92.322 62.3919 92.6467 61.9825 92.4314C61.8329 91.8245 62.278 91.4152 62.6767 90.8188C63.0078 90.3248 63.4387 89.7249 63.6914 89.2132C64.3786 89.8343 65.0515 91.334 65.5784 92.2021C65.5001 92.2585 65.4538 92.2268 65.3185 92.2232C63.9692 92.1985 64.9376 92.1103 64.6065 92.4314C65.3541 93.3066 66.0448 94.711 66.821 95.692L65.8277 95.9319C65.1797 96.006 65.6639 96.0378 63.9264 94.9333C64.4249 96.0695 66.5397 96.4542 68.6047 99.6512C68.6653 99.75 68.7294 99.8523 68.7934 99.9547L68.6225 99.8841L68.238 99.7253L65.1049 99.2842C65.6425 101.02 67.4583 102.4 68.797 103.628L68.765 103.533L68.9287 103.307Z" fill="#131316"/>
<path fill-rule="evenodd" clip-rule="evenodd" d="M187.753 101.938L185.887 101.673C186.147 102.513 186.756 103.247 187.443 103.921C187.322 104.648 187.19 105.371 187.055 106.091H137.957L138.798 98.1268C139.773 97.2517 140.663 96.5106 141.418 95.5649L139.759 96.7259L139.684 96.4012L139.396 95.4697L141.938 91.9621C140.19 91.7927 141.112 92.3114 139.559 92.262L144.352 85.4163C143.924 85.5151 143.273 85.9421 142.739 85.6598C142.539 84.8659 143.127 84.326 143.647 83.5461C144.085 82.9004 144.644 82.1099 144.975 81.4395C145.879 82.2546 146.758 84.2201 147.449 85.3599C147.346 85.434 147.289 85.3916 147.107 85.3846C145.341 85.3563 146.613 85.2399 146.178 85.6598C147.157 86.8031 148.065 88.6451 149.076 89.9331L147.777 90.2507C146.929 90.3495 147.563 90.3848 145.284 88.9415C145.957 90.4765 148.884 90.9635 151.665 95.5261L150.938 95.2226L146.83 94.6404C147.225 95.9143 148.136 97.0399 149.176 98.0633C149.817 97.4987 150.511 96.9482 151.027 96.4859C152.099 95.5226 153.085 94.7039 153.915 93.6629L152.085 94.9403L152.003 94.5804L151.686 93.5571L154.484 89.6931C152.558 89.5026 153.577 90.0778 151.868 90.0248L157.148 82.4769C156.674 82.5898 155.958 83.0556 155.367 82.7451C155.15 81.87 155.795 81.2771 156.371 80.4161C156.852 79.7033 157.472 78.8353 157.835 78.0942C158.832 78.9941 159.8 81.1607 160.562 82.4134C160.448 82.4946 160.384 82.4487 160.185 82.4416C158.237 82.4099 159.64 82.2864 159.159 82.7451C160.234 84.0084 161.238 86.0374 162.353 87.4559L160.925 87.8053C159.989 87.9147 160.687 87.9535 158.177 86.362C158.864 87.9358 161.705 88.511 164.567 92.629L165.892 90.7341C165.539 90.8188 165.012 91.1646 164.575 90.9353C164.414 90.286 164.891 89.8484 165.315 89.2132C165.671 88.6839 166.13 88.0417 166.397 87.4947C167.134 88.1581 167.854 89.7602 168.416 90.6882C168.334 90.7518 168.288 90.7165 168.138 90.7094C166.697 90.6847 167.736 90.593 167.38 90.9353C168.178 91.8668 168.918 93.3701 169.744 94.4181L168.683 94.6757C167.992 94.7569 168.509 94.7886 166.65 93.61C167.184 94.8239 169.456 95.2332 171.663 98.6737L173.322 96.3907C171.92 96.253 172.66 96.6694 171.418 96.6306L175.256 91.1434C174.91 91.2246 174.39 91.5669 173.96 91.3411C173.803 90.7059 174.273 90.2719 174.69 89.6473C175.038 89.1285 175.491 88.4969 175.754 87.9605C176.477 88.6134 177.182 90.1872 177.737 91.0976C177.655 91.1576 177.609 91.1258 177.463 91.1187C176.046 91.094 177.068 91.0058 176.719 91.3411C177.499 92.2585 178.229 93.7335 179.04 94.7639L178.001 95.018C177.321 95.0956 177.826 95.1238 176.003 93.9699C176.541 95.1979 178.884 95.5861 181.116 99.2419L180.532 98.9984L177.239 98.5326C177.84 100.477 179.959 101.991 181.376 103.342C181.757 103 182.109 102.661 182.423 102.266L181.358 103.011L181.312 102.799L181.127 102.206L182.754 99.9582C181.636 99.8488 182.223 100.184 181.23 100.152L184.299 95.7661C184.025 95.8296 183.608 96.1013 183.266 95.9213C183.138 95.4132 183.516 95.0674 183.847 94.5698C184.128 94.157 184.488 93.6488 184.698 93.2183C185.278 93.7406 185.841 95.0003 186.282 95.7308C186.218 95.7767 186.182 95.7519 186.065 95.7449C184.933 95.7272 185.748 95.6531 185.47 95.9213C186.097 96.6553 186.677 97.8339 187.325 98.6596L186.496 98.8643C185.951 98.9243 186.357 98.949 184.897 98.0245C185.242 98.8114 186.51 99.1678 187.916 100.773C187.863 101.161 187.809 101.55 187.753 101.938Z" fill="#131316"/>
<path fill-rule="evenodd" clip-rule="evenodd" d="M97.3974 101.726C97.6253 102.068 97.5932 103.42 97.5042 103.829C97.1731 103.677 97.2443 103.24 97.2479 102.823C97.255 102.428 97.2693 102.086 97.3939 101.722L97.3974 101.726ZM85.7052 103.822L85.6625 104.051C85.7622 104.133 85.8975 104.228 85.9865 104.284C86.0221 104.602 85.8761 104.764 85.9046 105.075C86.3959 105.396 87.3074 105.265 87.8948 105.173C87.9055 104.895 87.3821 104.507 87.1578 104.372C86.962 104.256 86.8303 104.203 86.7341 103.991C86.638 103.787 86.606 103.526 86.5383 103.384C86.4244 101.14 86.0221 102.015 86.9406 99.5346C87.1578 98.9488 87.3964 98.4477 87.7204 97.9784C88.1013 97.4279 88.1583 97.4385 88.5606 97.0927C88.6817 96.9869 88.7707 96.888 88.8882 96.8175C88.8704 98.3172 88.3078 99.3758 88.2829 99.771C88.258 100.166 88.6532 100.353 88.9665 100.861C89.23 101.285 89.4151 101.581 89.6358 102.026C89.8601 102.227 90.0773 102.862 90.2019 103.141C90.323 103.413 90.323 103.487 90.3265 103.815C90.3337 104.302 90.3265 104.14 90.6256 104.365C90.6719 105.068 89.9812 105.339 92.1139 105.233L92.5304 105.163C92.445 104.595 91.619 104.471 91.2594 103.804C90.9674 103.264 90.6826 102.573 90.3372 102.047C89.9349 100.653 89.3118 100.424 89.9883 98.0172C90.1663 97.375 90.4405 96.8386 90.6256 96.1964C90.8428 95.4307 90.59 94.665 90.501 93.9204C91.0635 94.2627 91.6439 95.0566 92.9897 95.5895C94.2109 96.0729 95.3324 96.0517 96.0623 95.1943C96.016 95.7236 95.546 95.8859 95.3823 96.2705C95.5781 96.2 95.6813 96.0976 95.8843 96.0023C95.7063 96.447 95.2042 96.4999 95.1793 97.2409C95.2897 96.9516 95.5852 96.6481 95.8914 96.5916C95.457 96.9586 95.1295 97.5338 95.2861 98.3595C95.3716 98.1549 95.3894 97.9855 95.4962 97.7455C95.482 98.4301 95.4392 98.7089 95.8059 99.1923C95.7775 98.6736 95.7775 98.6665 96.0053 98.289C95.9768 98.8077 95.895 99.15 95.959 99.711L96.1264 99.3617C96.1335 99.898 96.0587 100.053 96.2403 100.54C96.2795 100.06 96.2866 99.9863 96.5073 99.6404C96.4931 100.011 96.4433 100.212 96.5786 100.554C96.7316 100.943 96.664 101.02 96.7032 101.475C96.7601 102.146 96.7388 102.873 96.6569 103.497C96.6213 103.748 96.5465 103.928 96.5002 104.154C96.4041 104.616 96.5928 104.471 96.7708 104.665C96.9987 104.912 96.8242 104.983 96.7388 105.318C96.6426 105.689 96.8313 105.615 96.9595 105.897C97.3547 105.9 97.7677 105.957 98.1237 105.946C98.5118 105.932 98.8999 105.883 99.2951 105.893L99.4945 105.735C99.3521 105.428 99.0601 105.209 98.8002 105.043C98.3552 104.761 98.4157 104.711 98.259 104.125C98.081 103.317 98.0276 102.28 98.316 101.479C98.4905 100.999 98.4015 100.688 98.6649 100.353C98.8857 100.071 99.11 99.8592 99.2097 99.4111L99.3592 99.7145C99.5087 99.2276 99.9538 98.8394 100.15 98.2007C100.328 97.622 100.246 96.8245 100.534 96.3693C100.552 96.9727 100.609 97.4103 100.883 97.8761C101.05 98.1584 101.453 98.7477 101.677 98.8641C101.51 98.6454 101.47 98.2113 101.52 97.8549C101.577 97.4456 101.709 97.3221 101.812 97.0221C101.794 97.6467 101.609 97.9608 101.819 98.6771C101.951 99.1323 102.272 99.6052 102.603 99.7463C102.435 99.457 102.318 99.3758 102.275 98.9559C102.229 98.5324 102.353 98.3207 102.361 98.0666C102.471 98.843 102.585 99.397 103.083 99.7428C102.831 98.6912 102.77 98.9418 103.055 97.809C103.066 98.7547 103.062 99.6863 103.824 100.011C103.539 99.4005 103.386 98.7336 103.824 98.0843C103.806 99.0088 103.895 99.7322 104.554 100.06C104.233 99.3511 104.077 98.9488 104.554 98.1619C104.529 98.9029 104.486 99.4464 105.084 99.8381C104.75 98.9488 104.867 98.5854 105.373 97.7279C105.415 98.1478 105.319 98.2395 105.269 98.5712C105.565 98.2466 105.718 97.8514 105.91 97.3821C106.028 97.8196 105.939 98.2607 105.814 98.6312C105.974 98.4795 106.138 98.229 106.248 97.9784C106.309 97.8408 106.341 97.7138 106.384 97.5656C106.391 97.5338 106.434 97.3962 106.441 97.3715C106.526 97.1809 106.466 97.2903 106.555 97.2021C106.605 97.6608 106.54 97.6891 106.498 98.0702C107.181 97.3538 107.21 96.4505 107.537 95.9988L107.562 96.6728C108.089 96.0482 108.175 95.4766 108.257 94.5062C108.331 95.0955 108.417 95.0002 108.353 95.7589C108.552 95.5154 108.737 95.0037 108.812 94.6403C108.954 93.9627 108.794 93.8745 108.737 93.3487C108.83 93.4828 108.961 93.5217 109.093 93.7334C109.232 93.9557 109.221 94.1215 109.325 94.3156C109.52 93.4052 109.136 93.1723 108.794 92.703C109.193 92.8265 109.289 93.0206 109.513 93.2111C109.442 92.6748 109.011 92.1878 108.919 91.662C109.164 91.8032 109.179 91.9302 109.464 92.1278C109.392 91.5456 109.115 91.0163 108.872 90.5611C109.086 90.6634 109.026 90.6775 109.196 90.7975C109.125 90.3846 108.776 90.1058 108.502 89.8941C108.552 89.7 108.378 90.0176 108.559 89.8518C108.755 89.6753 108.605 89.8765 108.63 89.7671L108.242 89.4777C108.249 89.2695 108.207 89.5024 108.299 89.3683C108.445 89.1637 108.335 89.4883 108.338 89.3331C107.463 88.6097 107.577 88.3591 108.78 87.7346C109.467 87.3781 109.595 87.7734 110.257 87.731C110.265 87.7204 110.272 87.6993 110.275 87.6922L110.268 87.4417L110.592 87.3605C110.514 86.9441 110.371 86.7006 110.186 86.3866C109.816 85.7655 108.905 85.7938 108.21 85.7655C107.598 85.7408 107.705 85.5291 107.267 85.4021C107.562 85.1092 107.701 85.1092 107.452 84.5552C107.381 84.7034 107.448 84.7246 107.438 84.9433C107.402 84.5411 106.989 84.287 106.565 84.2588C106.758 84.3505 106.818 84.3929 106.953 84.5234C106.006 84.3011 106.142 84.5516 105.362 84.5481C105.469 84.6857 105.444 84.6152 105.497 84.774C104.935 84.961 104.839 85.4444 104.151 85.2292C104.265 85.4197 104.429 85.4903 104.629 85.5785C104.639 85.5856 104.664 85.5961 104.675 85.5997L104.764 85.6455C104.461 85.8149 104.354 85.8079 104.08 85.6597C104.169 85.9314 104.201 85.7479 104.344 86.0125C104.223 86.2137 104.365 86.0831 104.137 86.2031L103.87 86.3195C104.052 86.4113 104.08 86.3795 104.312 86.3901C104.148 86.5136 103.575 86.8453 103.503 86.9476L104.123 86.8877C103.785 87.1276 103.468 87.3252 103.436 87.918L103.496 87.8439C103.653 87.6569 103.81 87.4558 104.055 87.3923C103.813 87.4981 103.425 88.0521 103.471 88.4579C103.632 88.0627 103.653 88.225 103.795 88.0098C103.728 88.3027 103.482 88.5215 103.482 88.9978C103.539 88.8179 103.642 88.6802 103.813 88.5956C103.735 89.1178 103.653 89.2131 103.785 89.8024L103.948 89.5165L103.867 90.5117L104.23 90.0176L104.148 90.9774L104.305 90.7728C104.305 90.7728 104.329 90.741 104.337 90.734L104.404 90.6528C104.386 90.9175 104.351 91.0657 104.226 91.2597C104.176 91.3338 104.123 91.4044 104.091 91.4679C103.927 91.7996 104.162 91.2739 104.055 91.5597C103.927 91.9126 102.742 91.8384 101.972 90.9175C101.559 90.4234 101.406 89.6259 101.036 89.0261C100.292 87.8157 99.2951 87.5264 98.9391 86.0619C98.8572 85.7302 98.9035 85.8749 99.0067 85.8326C98.9782 85.6032 98.8963 85.3491 98.9213 85.1833C98.9355 85.0951 99.0281 85.0457 98.8501 84.6893C98.608 84.2094 98.7397 84.5269 98.7041 84.2517C98.6542 83.86 97.8603 83.5107 97.5683 83.4754C97.0734 83.4154 96.4753 83.7436 96.2688 84.1141C95.9769 84.6363 96.3364 85.9525 96.0516 86.8418C95.7454 87.791 94.8767 87.9886 94.1611 87.3076C92.7369 85.9455 93.7623 84.6152 93.1036 83.8777C92.6194 83.3378 92.0391 83.4295 91.4267 83.673C91.1597 83.7789 90.8179 84.2693 90.7324 84.5305C90.647 84.7881 90.5402 84.8128 90.4725 85.0174C90.2411 85.7161 90.6114 84.8339 90.5081 85.4656C90.412 86.0584 90.6434 85.4127 90.5081 85.8255C90.3835 86.2066 90.177 86.5489 90.0916 86.9371C90.1877 86.8065 90.2874 86.7571 90.355 86.6618C90.2518 86.9547 90.0916 87.2405 90.0951 87.6216C90.177 87.4381 90.2091 87.2546 90.3693 87.1488C90.0061 89.6506 88.0871 89.8024 86.7057 91.3233C85.9188 92.1878 86.2428 93.8181 85.7835 94.3368C85.4773 94.6861 84.9824 94.7955 84.8721 95.4095C84.7225 96.2317 85.399 96.3658 84.7012 96.9269C85.4773 96.9163 85.456 96.4328 85.7622 95.9671C86.2428 95.2366 86.3923 95.7906 86.2998 94.4815C86.2642 93.9804 86.3888 93.1194 86.517 92.6677C86.7021 92.0114 86.9015 91.7855 87.3643 91.5138C87.1187 92.1384 86.9905 92.3289 87.0297 93.13C87.1187 94.9614 87.2967 96.2493 86.3318 97.8761C86.047 98.356 85.7444 98.5854 85.4809 98.9347C85.2067 99.3017 85.5129 100.022 85.5913 100.459C85.9936 102.749 85.6803 103.434 85.7123 103.818L85.7052 103.822Z" fill="#131316"/>
<path fill-rule="evenodd" clip-rule="evenodd" d="M125.314 103.847C125.332 103.914 125.346 103.984 125.35 104.055C125.368 104.355 125.275 104.418 125.496 104.655C125.627 104.796 125.756 104.859 125.93 104.976L126.329 105.35L126.372 105.646C126.226 105.664 125.079 105.646 124.752 105.639C124.538 105.657 123.053 105.629 123.053 105.629C122.751 104.997 123.082 105.191 123.082 104.577C123.082 104.118 122.79 104.302 122.79 103.836C122.779 103.765 122.79 103.67 122.847 103.529C123.089 102.904 123.505 102.036 123.338 101.309C123.253 100.935 123.249 100.537 123.513 100.318L123.171 100.364L123.278 99.8626C123.278 99.7038 123.299 99.792 123.231 99.6897L123.103 100.067C122.936 99.6015 123.149 99.2098 123.317 98.8993C123.018 99.0757 123.078 99.1357 122.904 99.4074C122.679 98.9134 123.185 98.497 123.342 98.3029C123.089 98.3982 123.06 98.4511 122.708 98.4688L122.776 98.3982C122.776 98.3982 122.801 98.3735 122.808 98.3629C122.815 98.3559 122.829 98.3417 122.84 98.3312C122.979 98.1935 123.157 98.0559 123.231 97.883L122.64 97.9677C122.861 97.703 123.21 97.7913 123.484 97.1949C122.259 97.3431 120.646 97.0326 119.642 96.6056C117.827 95.8328 117.353 95.1482 116.794 94.8554C116.652 95.1412 116.484 96.5174 116.374 96.9902C116.196 97.7419 115.968 98.2853 115.747 98.9663C114.918 101.535 115.58 102.357 117.115 104.531C117.275 104.757 117.328 104.824 117.421 104.873H117.424H117.428L117.435 104.877H117.439L117.442 104.88H117.446H117.449H117.453L117.456 104.884H117.46H117.464H117.467L117.471 104.888H117.474L117.478 104.891H117.481V104.895H117.488H117.496L117.503 104.898H117.506H117.513L117.52 104.902H117.528H117.535H117.542L117.549 104.905H117.553H117.56V104.909H117.563L117.57 104.912H117.574H117.585V104.919H117.592L117.595 104.926L117.602 104.93H117.609L117.624 104.937L117.642 104.944L117.656 104.951H117.663L117.674 104.958L117.688 104.965H117.691L117.706 104.976H117.709L117.713 104.979C117.731 104.99 117.752 104.997 117.773 105.007L117.795 105.018C117.976 105.106 118.19 105.286 118.371 105.41C118.389 105.484 118.386 105.554 118.325 105.597C118.151 105.724 117.98 105.756 117.613 105.759C117.243 105.763 116.545 105.759 116.545 105.759L116.46 105.618C116.499 105.593 116.52 105.562 116.534 105.512C116.534 105.512 116.538 105.498 116.541 105.487V105.48V105.473V105.466V105.459V105.456V105.452V105.449V105.442V105.438V105.434V105.431V105.424V105.417V105.413V105.41V105.403V105.396V105.392V105.389V105.382V105.374V105.367V105.36V105.353V105.343V105.336V105.329V105.322V105.311V105.304V105.297V105.29V105.283V105.279V105.272V105.265V105.258V105.251V105.247V105.237V105.23V105.223V105.216V105.205C116.531 105.195 116.524 105.187 116.513 105.18C116.513 105.18 116.502 105.173 116.499 105.17C116.495 105.166 116.492 105.163 116.484 105.159C116.481 105.159 116.477 105.152 116.474 105.149C116.474 105.149 116.467 105.142 116.463 105.138L116.456 105.131H116.449V105.124H116.445L116.438 105.117C116.207 104.969 116.071 105.036 115.957 104.619C115.84 104.178 115.812 104.087 115.594 103.705C115.263 103.134 114.964 102.64 114.562 102.192C114.327 101.93 114.209 101.81 113.928 101.553C113.113 100.808 114.003 101.133 114.249 98.6664C113.864 98.8852 113.326 99.6685 113.084 100.148C112.451 101.408 112.418 103.106 112.917 104.453C113.099 104.948 113.198 104.873 113.586 105.117C113.978 105.36 113.996 105.512 114.27 105.766C114.256 105.914 114.27 105.886 114.209 105.907H112.148H112.205C112.315 105.149 112.443 105.127 111.924 104.768C111.888 104.228 111.977 103.758 111.92 103.141C111.703 100.829 110.855 100.265 111.536 99.7074C112.369 99.0263 112.785 98.0947 112.867 96.8314C112.931 95.8434 112.835 94.5872 112.753 93.5921C112.5 93.9097 112.24 95.5011 112.055 96.0728C111.642 97.3431 112.127 97.4701 110.66 97.823C110.788 97.5795 111.048 97.5407 111.001 97.2867C110.955 97.0326 110.752 96.9832 110.784 96.5633C110.834 95.8999 111.325 95.9069 111.703 95.6105C112.038 95.3494 112.045 94.6789 112.141 94.199C112.24 93.7015 112.383 93.2357 112.582 92.7946C112.792 92.3323 113.066 91.9653 113.366 91.7254C114.455 90.8467 115.509 90.2645 115.861 88.6342C115.751 88.7224 115.723 88.7366 115.633 88.8742L115.893 87.8791C115.822 87.8508 115.911 87.9214 115.833 87.8544C115.933 87.6427 115.933 87.4698 116.064 87.2439C116.178 87.0392 116.349 86.9546 116.435 86.7816C116.128 86.8346 116.047 87.0992 115.861 87.2792C115.897 86.5488 116.306 86.6793 116.691 86.4076L116.096 86.4535C116.175 86.1853 116.474 86.21 116.645 86.0583C116.559 86.0371 116.509 86.0336 116.41 85.9983L116.242 85.9136C116.235 85.8924 116.214 85.8959 116.203 85.8854C116.595 85.7618 116.417 85.8007 116.837 85.8148C116.78 85.6948 116.47 85.6031 116.673 85.3137C116.808 85.1196 117.043 85.2502 117.207 85.3137C117.15 84.8338 117.161 84.8409 117.517 84.6256L117.577 85.0808C117.723 84.548 117.77 84.308 118.364 84.181C118.24 84.3115 118.09 84.3962 118.112 84.6538C118.122 84.1598 119.614 83.8352 120.194 84.3221C120.194 84.4068 120.194 84.3609 120.045 84.4421C120.461 84.5197 120.625 84.7985 120.622 85.2678L120.415 84.9326C120.511 85.4372 120.508 85.4937 120.212 85.7583C120.052 85.6877 120.134 85.7019 119.991 85.6066C119.742 85.4407 119.892 85.5395 119.717 85.5325L119.582 85.5466C118.902 85.8395 119.6 88.5954 120.81 89.0118C122.865 89.714 123.733 85.8254 123.157 85.5254C123.032 85.4619 122.961 85.5501 122.843 85.5748C122.598 85.6242 122.64 85.7019 122.437 85.7936C122.113 85.4619 122.274 85.2325 122.402 84.8409C122.245 84.9185 122.195 85.0102 122.117 85.1902C122.099 84.7138 122.455 84.3186 122.868 84.1916C123.448 84.0151 123.851 84.2233 124.303 84.4315C124.218 84.248 124.2 84.3151 124.057 84.1528C124.417 84.2163 124.499 84.2763 124.584 84.6009L124.648 84.2833C124.983 84.5339 124.833 84.3927 124.997 84.802C125.303 84.675 125.585 84.8091 125.706 85.0349C125.506 85.1267 125.489 85.0349 125.353 85.2467C125.823 85.0843 126.133 85.3455 126.283 85.6595C126.133 85.5784 126.008 85.4866 125.748 85.4866C126.236 86.0759 126.425 86.1218 126.379 87.0922L126.065 86.4147V86.7499L125.891 86.4252C125.941 87.2333 126.877 88.6766 126.881 88.853C126.87 88.7295 126.567 88.419 126.4 88.3096C126.574 88.7754 126.916 89.2588 127.183 89.6117C127.45 89.9681 127.892 90.4092 128.063 90.7726C127.781 90.4127 127.376 90.2751 127.062 89.961C127.251 90.4233 127.824 90.7691 128.07 91.2525L127.863 91.1149C128.059 91.8101 129.797 92.8899 130.427 91.6372C130.156 91.743 129.968 91.8559 129.615 91.863C130.103 91.736 130.402 91.2631 130.566 90.815C130.391 91.1326 130.217 91.4113 129.896 91.5384C130.217 91.2737 130.341 90.6668 130.416 90.0845L130.167 90.5009C130.103 90.628 130.071 90.7021 129.975 90.8362C129.911 90.4551 130.131 90.0669 130.085 89.6187C130.113 90.0563 129.665 90.5539 129.188 90.5574C129.522 90.3739 129.608 90.2292 129.629 89.7811C129.569 89.9046 129.537 89.9116 129.437 89.9787L129.512 88.6448C129.512 88.6448 129.312 89.1494 129.309 89.16C129.106 88.7295 129.341 88.0873 129.462 87.7309L129.259 87.9214C129.241 87.1698 129.622 86.8134 130.049 86.4923C129.75 86.5346 129.743 86.644 129.49 86.6934C129.587 86.277 129.889 86.1924 130.227 86.0018C130.106 85.7971 129.918 85.7054 129.811 85.3702C130.245 85.4972 130.754 85.5642 131.085 85.2925C130.608 85.2608 130.366 85.2467 130.203 84.8444C130.559 84.9467 130.598 84.915 130.954 84.862C130.858 84.7032 130.826 84.7209 130.79 84.5268C130.964 84.7632 131.531 84.6962 131.926 84.675L131.666 84.488C132.634 84.5021 133.022 84.615 133.304 85.3666C133.09 85.289 132.784 85.1337 132.52 85.2643C132.905 85.4231 132.819 85.3066 133.197 85.5642C133.343 85.663 133.364 85.6525 133.517 85.716C133.709 85.7971 133.638 85.7548 133.674 85.8748C134.179 85.8642 135.112 85.9348 135.554 86.1147C135.985 86.2912 136.216 86.9651 136.266 87.5156C136.049 87.6603 136.102 87.5756 135.945 87.805C135.49 87.8226 135.401 87.6285 134.981 87.5403C135.041 91.6442 135.664 95.4552 134.664 99.4533C134.379 100.593 133.61 102.735 132.346 103.151C132.008 103.264 132.04 103.469 131.83 103.797C131.445 104.397 131.082 104.662 130.744 104.789C130.224 105.025 127.326 105.66 126.639 105.671C126.535 105.639 126.55 105.611 126.639 105.583C127.888 105.569 129.551 105.032 130.672 104.524C131.182 104.266 131.595 103.751 131.794 103.215C131.392 102.986 131.15 102.911 131.025 102.312C130.79 101.165 131.78 100.148 132.179 101.458C132.342 101.987 132.271 102.403 132.221 102.915C133.321 102.541 134.105 100.597 134.432 99.1675C135.297 95.3988 134.881 91.3655 134.703 87.5333C133.859 87.7238 133.969 88.0873 132.99 87.872C133.115 88.0979 133.571 88.2355 133.82 88.426L133.286 88.4084L133.45 88.5989C133.763 88.8777 134.083 89.0647 134.297 89.4494C134.066 89.2094 133.528 88.8354 133.061 88.7189C133.236 88.9342 133.471 88.9659 133.617 89.2165L133.097 89.1459C133.802 89.4776 134.535 90.0457 134.603 90.9138C134.418 90.6527 134.169 89.9222 133.204 89.8799C133.87 90.3139 134.336 90.5362 134.528 91.5313C134.297 91.1608 134.009 90.7903 133.617 90.635C134.012 91.1255 134.429 91.5913 134.315 92.5511L133.98 91.9689C134.158 92.5017 134.24 92.7346 134.176 93.3945C134.023 93.1616 134.012 92.717 133.852 92.4841C134.001 94.1955 133.738 93.4227 133.631 94.4531C133.556 95.1659 133.257 95.734 132.844 95.9775C133.069 95.4411 133.343 95.0918 133.389 94.3896C133.336 94.4637 133.396 94.3543 133.311 94.5201C133.104 94.9295 132.944 95.3635 132.624 95.6881L132.648 95.1976C132.517 95.3635 132.495 95.667 132.463 95.8893C132.435 96.101 132.396 96.3551 132.328 96.5562C132.207 96.9161 131.915 97.3643 131.627 97.4878C131.776 97.1243 131.993 96.6374 131.883 96.1575C131.637 96.8597 131.513 97.3008 130.911 97.5689L131.182 96.4539C130.925 96.5774 130.598 96.962 130.729 97.456C130.804 97.7348 131.199 98.0418 131.491 98.1512C130.879 98.1759 130.331 97.7454 130.067 97.4843C130.135 97.7383 130.398 98.0418 130.58 98.1582C130.178 98.063 129.658 97.4066 129.608 97.1173C129.604 97.0961 129.594 97.0926 129.583 97.0785C129.597 97.576 129.8 97.9748 130.039 98.2112C129.458 97.9324 128.967 97.3643 128.988 96.655C128.778 97.0502 128.999 97.5689 129.102 97.9183C128.917 97.5972 128.65 97.7348 128.408 96.6585C128.39 96.5774 128.39 96.588 128.365 96.5174C128.362 96.5068 128.348 96.4962 128.344 96.4715C128.344 96.4468 128.33 96.4398 128.326 96.4256L128.216 96.8597C128.159 96.782 128.216 96.9126 128.148 96.7326C128.113 96.6338 128.137 96.715 128.123 96.6409C128.109 96.5809 128.105 96.4503 128.105 96.3868C128.105 96.2104 128.12 96.0869 128.13 95.9175C127.76 96.4327 127.981 96.955 128.148 97.4843C127.878 97.269 127.589 96.8279 127.351 96.5103C127.383 97.1243 127.817 97.9148 127.536 98.4688L127.411 97.8971C127.29 99.6368 127.162 98.9028 126.959 99.5803L126.991 98.8993C126.945 98.9698 126.977 98.8993 126.923 99.0369C126.842 99.2521 126.788 99.5133 126.656 99.7003C126.485 99.9403 126.368 100.06 126.019 100.166C125.998 101.144 125.77 100.971 125.506 101.567C125.332 101.966 125.275 102.731 125.264 103.197C125.254 103.691 125.25 103.765 125.254 103.801L125.314 103.847ZM123.737 104.288C123.73 104.411 123.737 104.492 123.886 104.648C124.018 104.789 124.146 104.852 124.321 104.969L124.542 105.177C124.57 105.036 124.691 104.958 124.695 104.588C124.695 104.129 124.424 104.319 124.492 103.847C124.542 103.582 124.634 103.324 124.677 103.031C124.777 102.361 124.841 101.846 124.716 101.2C124.577 101.292 124.335 101.694 124.203 101.867C123.851 102.333 123.748 103.169 123.758 103.762C123.765 104.143 123.748 104.164 123.74 104.284L123.737 104.288ZM131.926 102.957C132.203 102.488 132.089 101.345 131.641 101.182C131.171 101.592 131.224 102.858 131.926 102.957Z" fill="#131316"/>
<path fill-rule="evenodd" clip-rule="evenodd" d="M84.6974 86.0656C84.6974 86.0656 84.6547 85.9033 84.6511 85.8927C84.0316 84.2236 83.2448 84.8835 82.0414 84.6224C81.55 84.5165 81.6497 84.5659 81.3934 84.273C81.0445 83.8743 80.4712 83.9166 79.9835 83.719C79.8411 83.7084 79.9123 83.8143 79.7058 83.8778C79.6203 83.906 79.2963 83.9519 79.0613 84.1707C78.9154 84.3083 79.218 84.1636 78.9367 84.2907L79.218 84.3401C79.0863 84.4353 78.4917 84.6435 78.1428 84.8835L78.4098 85.007C78.1784 85.2152 77.9576 85.4869 77.7938 85.741C78.0253 85.7092 78.0324 85.5857 78.2674 85.5575C78.1748 85.5928 77.7582 86.0903 77.7191 86.2244C77.6051 86.6231 77.9683 86.0444 77.7262 86.5137C77.6336 86.6972 77.5517 86.8031 77.5482 87.0254C77.7298 86.8631 77.6336 86.8596 77.8401 86.7396C77.6977 87.103 77.5802 87.3077 77.5695 87.7735C77.6621 87.6712 77.7938 87.4806 77.8935 87.3853L77.8579 88.1158C77.8971 88.1017 77.9149 88.0876 77.922 88.077C77.9291 88.084 77.9363 88.0876 77.9469 88.0981C77.8544 88.384 77.8651 88.7545 77.9505 89.0262C78.0894 88.8462 78.0003 88.7404 78.2033 88.5428C78.1926 88.885 78.1072 89.3685 78.2033 89.5061L78.4027 89.1285L78.3243 89.9295C78.3493 89.919 78.3635 89.8766 78.3706 89.8872C78.3742 89.8978 78.392 89.8554 78.3991 89.8449L78.5451 89.6084C78.5308 90.3283 78.481 90.3212 78.2033 90.7729C78.3208 90.727 78.3706 90.6635 78.4881 90.727C77.5482 91.1928 76.5299 90.8258 75.8748 90.2789C75.2375 89.7461 74.6144 89.2697 74.1979 88.4369C73.8774 87.7947 73.3683 86.6514 73.1867 85.9421C72.9624 85.0634 72.966 84.2342 71.4208 84.1389V84.273C70.7693 84.4177 70.5805 84.6153 70.4702 85.3034C70.6767 85.4093 70.4524 85.314 70.6162 86.055C70.634 86.048 70.6446 86.0444 70.6553 86.0444C70.6624 86.0303 70.6731 86.0091 70.6874 85.9809C70.7052 85.9527 70.7336 85.8645 70.7586 85.8186C70.8974 86.6478 71.2535 87.1454 70.8013 88.0734C70.5414 88.6098 70.0038 89.192 69.1813 89.1744C67.6397 89.1426 66.9383 87.3218 67.6148 85.8468L67.6433 86.2561C67.9423 85.8398 67.7394 85.6422 67.9067 85.3246C68.1025 84.9611 67.7643 84.3436 67.0024 84.2942C66.835 84.0613 67.095 84.3718 67.0024 84.1354C66.0126 84.1918 65.4857 84.5553 65.2293 85.3528C64.9125 86.3373 64.1826 86.1326 64.1149 87.2583C64.1256 87.2442 64.1399 87.2089 64.1434 87.2195C64.147 87.2301 64.1648 87.1913 64.1719 87.1807C64.3286 86.9548 64.3499 86.8701 64.6383 86.7255C63.9512 87.6429 64.0615 88.818 63.3779 89.7637C62.4024 91.1152 61.1064 91.0764 60.8821 93.7617C60.8323 94.3722 60.8323 95.1309 60.3694 95.4132C60.1416 95.5543 59.2622 95.7272 59.3796 96.5388C59.4687 97.1458 60.3053 97.3046 59.3939 97.8445C60.6543 97.7951 60.195 96.7612 60.6293 95.9072C61.4625 94.2628 61.0139 94.0617 61.4126 93.4547C61.4909 93.5924 61.5016 93.9488 61.5194 94.1146C61.7046 95.8296 61.847 97.3469 60.7646 98.836C60.5368 99.1536 60.106 99.4112 60.1522 99.8841C60.2057 100.438 60.551 100.738 60.6578 102.686C60.7255 103.879 60.5973 103.497 60.4193 104.076C60.4656 104.464 60.7219 104.32 60.7397 104.665C60.7468 104.785 60.697 104.891 60.6863 105.036L60.6009 105.403C60.6009 105.403 60.583 105.438 60.5688 105.452C60.5759 105.463 60.5937 105.463 60.5973 105.477C60.6543 105.678 62.2457 105.71 62.584 105.558C62.4736 105.064 62.0926 104.948 61.7295 104.701C61.4838 104.538 61.4625 104.524 61.4411 104.147C61.4269 103.854 61.3343 103.727 61.2844 103.42C61.0139 102.982 61.2132 101.02 61.3984 100.512C61.669 99.7711 62.1674 99.0725 62.5056 98.3738C62.5697 99.3159 62.082 100.35 62.1781 100.537C62.5591 100.869 62.8973 101.105 63.2106 101.539C63.3815 101.772 63.9084 102.612 63.9832 102.862C64.1541 103.025 64.3891 103.529 64.4496 103.815C64.6419 104.74 64.5707 104.168 65.0015 104.665C65.0264 105.036 64.859 105.121 64.9801 105.481C65.183 105.675 65.5782 105.654 65.9414 105.657C66.1372 105.657 66.3366 105.654 66.5289 105.643C66.7638 105.629 66.9027 105.643 66.981 105.491C66.803 104.923 66.2049 104.775 65.7669 104.429C65.475 104.196 65.0228 103.434 64.8306 103C64.592 102.7 64.0508 101.528 63.9049 101.084C63.6272 100.24 63.6272 99.4042 63.6984 98.4832C63.7803 97.4457 64.0793 97.114 64.3357 96.2495C64.5173 95.6496 64.7095 94.4287 64.7985 93.7864C65.5106 94.2205 65.7135 94.8309 67.6041 95.8437C69.0532 96.6235 69.9788 96.5036 71.6344 96.193C71.5632 97.5022 71.7127 98.4761 71.3852 99.7394C71.2713 100.17 71.5169 100.858 71.5169 101.401C71.5169 101.987 71.4386 102.58 71.3852 103.13C71.3211 103.3 71.2357 103.501 71.1858 103.681C71.0683 104.097 71.168 104.006 71.257 104.313C71.4386 104.955 70.8725 104.852 71.1751 105.548C71.7341 105.756 72.4569 105.742 73.1084 105.654C73.1155 105.294 72.5281 104.951 72.2753 104.757C72.083 104.613 71.994 104.422 72.0261 104.164C72.0795 103.723 72.0866 103.847 72.0011 103.381C71.8765 102.975 71.962 102.164 72.0332 101.715C72.14 101.063 72.3002 100.922 72.5459 100.417C72.8058 99.8911 72.4462 99.076 73.2864 97.5057C73.4039 97.9644 73.4787 98.395 73.5641 98.8643C73.6709 99.4359 73.5392 99.9793 73.6994 100.427C74.0412 101.391 74.2548 102.107 74.1623 103.243C73.8774 104.246 74.3011 103.836 74.2976 104.433C74.2976 105.103 73.9202 104.831 74.2513 105.516C74.6963 105.759 75.5651 105.689 76.1276 105.59L76.0813 105.265L75.647 104.856C75.4583 104.725 75.3194 104.658 75.177 104.507C74.9384 104.249 75.0381 104.179 75.0168 103.854C75.0025 103.603 74.8993 103.395 74.8031 103.173C74.2655 101.274 74.8672 100.173 74.8494 99.7711C74.8281 99.3583 74.7106 99.1042 74.7248 98.6031L74.9918 95.6778C75.0559 95.4485 75.1307 95.4838 75.3087 95.3356C75.5651 95.1238 75.7822 94.8662 76.0137 94.6792C75.914 95.0038 75.7716 95.1132 75.6291 95.3991C75.9425 95.2897 75.9745 95.1521 76.1988 95.0215C76.1703 95.1556 76.1205 95.3214 76.0635 95.4379C75.9425 95.6778 75.9567 95.5437 75.8321 95.7378L76.0706 95.7237C75.9745 96.0766 75.8214 96.1683 75.4191 96.1577C75.9994 96.687 76.3519 96.253 76.7222 95.9143C76.7507 96.3483 76.7044 96.4471 76.5014 96.6694C76.7827 96.6623 76.8966 96.6271 77.096 96.4577L77.274 96.3024C77.2456 96.6482 77.1886 96.7611 77.0675 97.0399C77.4983 97.0046 77.7689 96.7717 77.9932 96.4683L78.2033 96.1577C78.3528 96.5353 78.2638 96.9164 78.1356 97.2058C78.6021 97.0611 78.8086 96.6906 78.9973 96.4048C79.1076 96.2389 78.9795 96.3412 79.1361 96.246C79.1824 96.7047 79.1788 96.8035 78.9973 97.1246C79.3996 97.0505 79.7129 96.5706 79.8375 96.246C79.8695 96.1577 79.8802 96.1083 79.9087 96.0236L80.0298 95.7731L80.0618 96.3518C80.0832 96.2989 80.5781 95.1556 80.6208 95.085L80.5282 95.9143C81.0801 95.3461 81.2011 94.8768 81.194 93.85L81.3293 94.1146C81.3507 94.1922 81.3791 94.3757 81.3863 94.4604C81.4112 94.7039 81.4005 94.9227 81.3542 95.1379C82.1873 94.097 81.753 93.5853 81.8349 93.1372C82.0058 93.4512 81.9844 93.7335 82.0058 94.1428C82.2051 93.43 82.4686 93.85 82.2194 92.5408L82.4116 92.6925L82.2087 91.8915C82.3654 91.9797 82.2977 91.9727 82.4437 92.0821L82.2336 91.4187C82.3191 91.3763 82.2229 91.4292 82.4401 91.4998C82.4045 90.7447 82.0663 89.8696 82.1233 89.5873C82.1517 89.4461 82.198 89.5696 82.1411 89.3897C82.0805 89.1956 81.8883 88.9309 81.7993 88.7933L81.9452 88.7651L81.6568 88.1405C81.8455 88.0382 81.5678 88.2852 81.8349 88.1511C81.8135 88.1052 81.3507 87.3324 81.4432 87.0995C81.5216 86.909 83.2519 86.3514 83.4477 86.3232L83.9141 86.542C83.9141 86.4996 83.9212 86.4573 83.9248 86.4185L84.441 86.4573C84.4553 86.422 84.5229 86.302 84.5229 86.302L84.6476 86.1962C84.6974 86.1397 84.7081 86.1926 84.7116 86.1962C84.7116 86.1962 84.7116 86.1679 84.7116 86.0691L84.6974 86.0656ZM70.6518 86.0268C70.7265 86.0162 70.6162 86.115 70.6518 86.0268Z" fill="#131316"/>
</svg>
