<svg width="24" height="29" viewBox="0 0 24 29" fill="none" xmlns="http://www.w3.org/2000/svg">
<path d="M8.61992 0.333496L6.25443 3.88174L8.74113 6.14239C4.07039 7.54231 0.666748 11.8738 0.666748 17.0002C0.666748 23.2594 5.74085 28.3335 12.0001 28.3335C18.2593 28.3335 23.3334 23.2594 23.3334 17.0002C23.3334 11.8738 19.9298 7.54239 15.2591 6.14242L17.7459 3.88174L15.3803 0.333496H8.61992ZM12.0001 8.3335C16.7866 8.3335 20.6667 12.2137 20.6667 17.0002C20.6667 21.7867 16.7866 25.6668 12.0001 25.6668C7.21361 25.6668 3.33341 21.7867 3.33341 17.0002C3.33341 12.2137 7.21361 8.3335 12.0001 8.3335ZM9.74595 3.45192L10.047 3.00016H13.9533L14.2545 3.45192L12.0002 5.50124L9.74595 3.45192Z" fill="#131316"/>
</svg>
