<svg width="28" height="24" viewBox="0 0 28 24" fill="none" xmlns="http://www.w3.org/2000/svg">
<path d="M23.3334 21.3333H4.66675V22.6667C4.66675 23.4031 4.06979 24 3.33341 24H2.00008C1.26371 24 0.666748 23.4031 0.666748 22.6667V9.33333L3.97408 1.61621C4.39429 0.63572 5.3584 0 6.42513 0H21.575C22.6418 0 23.6058 0.63572 24.0261 1.61621L27.3334 9.33333V22.6667C27.3334 23.4031 26.7365 24 26.0001 24H24.6667C23.9303 24 23.3334 23.4031 23.3334 22.6667V21.3333ZM24.6667 12H3.33341V18.6667H24.6667V12ZM3.568 9.33333H24.4322L21.575 2.66667H6.42513L3.568 9.33333ZM6.66675 17.3333C5.56217 17.3333 4.66675 16.4379 4.66675 15.3333C4.66675 14.2288 5.56217 13.3333 6.66675 13.3333C7.77132 13.3333 8.66675 14.2288 8.66675 15.3333C8.66675 16.4379 7.77132 17.3333 6.66675 17.3333ZM21.3334 17.3333C20.2289 17.3333 19.3334 16.4379 19.3334 15.3333C19.3334 14.2288 20.2289 13.3333 21.3334 13.3333C22.4379 13.3333 23.3334 14.2288 23.3334 15.3333C23.3334 16.4379 22.4379 17.3333 21.3334 17.3333Z" fill="#404040"/>
</svg>
