<svg width="22" height="28" viewBox="0 0 22 28" fill="none" xmlns="http://www.w3.org/2000/svg">
<path d="M2.99992 3.33317V24.6665H18.9999V3.33317H2.99992ZM1.66659 0.666504H20.3333C21.0697 0.666504 21.6666 1.26346 21.6666 1.99984V25.9998C21.6666 26.7362 21.0697 27.3332 20.3333 27.3332H1.66659C0.930212 27.3332 0.333252 26.7362 0.333252 25.9998V1.99984C0.333252 1.26346 0.930212 0.666504 1.66659 0.666504ZM10.9999 20.6665C11.7363 20.6665 12.3333 21.2634 12.3333 21.9998C12.3333 22.7362 11.7363 23.3332 10.9999 23.3332C10.2635 23.3332 9.66659 22.7362 9.66659 21.9998C9.66659 21.2634 10.2635 20.6665 10.9999 20.6665Z" fill="#131316"/>
</svg>
